<svg width="32" height="32" viewBox="0 0 32 32" fill="none" xmlns="http://www.w3.org/2000/svg">
<rect width="32" height="32" rx="5.33333" fill="#0C0C0C"/>
<g clip-path="url(#clip0_695_11037)">
<path d="M22.5276 20.4689C22.2857 21.0279 21.9993 21.5424 21.6674 22.0155C21.2151 22.6604 20.8447 23.1068 20.5593 23.3547C20.1169 23.7616 19.6428 23.97 19.1352 23.9818C18.7707 23.9818 18.3312 23.8781 17.8196 23.6678C17.3064 23.4584 16.8347 23.3547 16.4034 23.3547C15.9511 23.3547 15.4659 23.4584 14.9471 23.6678C14.4274 23.8781 14.0087 23.9878 13.6886 23.9986C13.2018 24.0194 12.7166 23.8051 12.2323 23.3547C11.9231 23.0851 11.5365 22.6229 11.0733 21.9681C10.5763 21.2688 10.1677 20.458 9.84766 19.5336C9.50485 18.5351 9.33301 17.5682 9.33301 16.6321C9.33301 15.5599 9.5647 14.6351 10.0288 13.8601C10.3935 13.2376 10.8787 12.7465 11.486 12.386C12.0933 12.0256 12.7495 11.8419 13.4561 11.8301C13.8428 11.8301 14.3498 11.9497 14.9799 12.1848C15.6083 12.4206 16.0117 12.5402 16.1886 12.5402C16.3208 12.5402 16.769 12.4004 17.5288 12.1216C18.2473 11.863 18.8537 11.7559 19.3505 11.7981C20.6966 11.9067 21.7079 12.4374 22.3805 13.3934C21.1766 14.1229 20.581 15.1446 20.5929 16.4553C20.6038 17.4762 20.9741 18.3257 21.702 19.0003C22.0319 19.3133 22.4002 19.5553 22.8101 19.7272C22.7212 19.9849 22.6274 20.2318 22.5276 20.4689ZM19.4403 8.32009C19.4403 9.12027 19.148 9.8674 18.5653 10.5589C17.8621 11.381 17.0116 11.8561 16.0892 11.7811C16.0775 11.6851 16.0707 11.5841 16.0707 11.4779C16.0707 10.7097 16.4051 9.88765 16.9989 9.21547C17.2954 8.87514 17.6725 8.59215 18.1298 8.36641C18.586 8.14404 19.0176 8.02106 19.4235 8C19.4354 8.10697 19.4403 8.21395 19.4403 8.32008V8.32009Z" fill="#F9F9F9"/>
</g>
<defs>
<clipPath id="clip0_695_11037">
<rect width="16" height="16" fill="white" transform="translate(8 8)"/>
</clipPath>
</defs>
</svg>
