<svg width="64" height="64" viewBox="0 0 64 64" fill="none" xmlns="http://www.w3.org/2000/svg">
<g clip-path="url(#clip0_712_13075)">
<path d="M47.6671 64.0009C47.7535 64.0009 47.8388 64.0062 47.9231 64.0062C49.5486 64.0017 51.1061 63.3535 52.2548 62.2036L57.1615 57.2969C57.7137 56.7447 58.1328 56.0738 58.3869 55.3354C58.641 54.5969 58.7235 53.8103 58.6281 53.0352C58.5327 52.26 58.2618 51.5169 57.8362 50.8621C57.4106 50.2073 56.8413 49.6582 56.1716 49.2564L45.3706 42.7742C44.3898 42.184 43.2398 41.9391 42.1036 42.0784C40.9675 42.2178 39.9108 42.7335 39.1018 43.5433L35.8132 46.8276C35.6728 46.9738 35.4889 47.071 35.2889 47.1046C35.0889 47.1382 34.8834 47.1065 34.7028 47.0142C33.2319 46.2793 29.9967 44.2782 24.8618 39.1422C19.7268 34.0062 17.7247 30.7721 16.9876 29.2969C16.8967 29.1174 16.8649 28.9136 16.8969 28.7149C16.9289 28.5161 17.023 28.3327 17.1658 28.1908L20.4543 24.9033C21.2639 24.094 21.7794 23.0371 21.919 21.901C22.0585 20.7648 21.8141 19.6146 21.2244 18.6334L14.7508 7.8281C14.3488 7.15869 13.7995 6.58968 13.1447 6.16427C12.4899 5.73885 11.7467 5.46822 10.9717 5.37291C10.1967 5.2776 9.41012 5.36011 8.67174 5.6142C7.93336 5.86828 7.26258 6.28725 6.71031 6.8393L1.80364 11.746C1.20181 12.3441 0.731111 13.0611 0.42149 13.8511C0.111869 14.6411 -0.0298883 15.487 0.00524145 16.3348C0.242041 21.6212 2.21751 35.3417 15.4335 48.5673C28.6495 61.7929 42.3775 63.7588 47.6671 64.0009ZM3.30657 13.2542L8.21324 8.34756C8.49156 8.06787 8.82253 7.84609 9.18705 7.69505C9.55157 7.54401 9.9424 7.46669 10.337 7.46756C10.4618 7.46758 10.5864 7.47506 10.7103 7.48996C11.1641 7.544 11.5994 7.70144 11.9827 7.95017C12.3661 8.19889 12.6873 8.53227 12.9215 8.92463L19.3962 19.7257C19.7408 20.2995 19.8836 20.9719 19.8021 21.6362C19.7205 22.3005 19.4192 22.9185 18.946 23.3918L15.6564 26.6804C15.196 27.1388 14.8924 27.7311 14.7891 28.3726C14.6859 29.0141 14.7882 29.6718 15.0815 30.2516C16.05 32.1908 18.2719 35.5668 23.3535 40.6473C28.4351 45.7278 31.81 47.9508 33.745 48.9172C34.3259 49.2107 34.985 49.3125 35.6275 49.2078C36.2699 49.1032 36.8627 48.7975 37.3204 48.3348L40.609 45.0548C41.0827 44.5823 41.7006 44.2814 42.3647 44.1999C43.0288 44.1183 43.7011 44.2608 44.2751 44.6046L55.074 51.0793C55.4656 51.3144 55.7984 51.6357 56.0473 52.0187C56.2961 52.4016 56.4545 52.8362 56.5103 53.2895C56.5661 53.7428 56.518 54.2029 56.3695 54.6348C56.221 55.0667 55.976 55.4591 55.6532 55.7822L50.7466 60.6889C50.3553 61.0781 49.8884 61.3831 49.3748 61.5849C48.8611 61.7867 48.3115 61.8811 47.7599 61.8622C42.7199 61.6372 29.6266 59.7438 16.9407 47.0569C4.25484 34.37 2.36151 21.2766 2.13324 16.242C2.11039 15.6898 2.20293 15.1388 2.40496 14.6244C2.60699 14.11 2.91406 13.6433 3.30657 13.2542Z" fill="#95CFBA"/>
<path d="M58.6663 0.000488281H30.9329C29.519 0.002182 28.1634 0.564629 27.1636 1.56446C26.1637 2.56428 25.6013 3.91985 25.5996 5.33382V23.4672C25.6013 24.8811 26.1637 26.2367 27.1636 27.2365C28.1634 28.2364 29.519 28.7988 30.9329 28.8005H31.9996V34.4368C31.9931 34.9861 32.1444 35.5258 32.4353 35.9919C32.7263 36.4579 33.1448 36.8307 33.6412 37.0661C34.1164 37.2919 34.6463 37.3769 35.1682 37.3109C35.6902 37.2449 36.1823 37.0308 36.5863 36.6938L46.246 28.8005H58.6663C60.0802 28.7988 61.4358 28.2364 62.4356 27.2365C63.4355 26.2367 63.9979 24.8811 63.9996 23.4672V5.33382C63.9979 3.91985 63.4355 2.56428 62.4356 1.56446C61.4358 0.564629 60.0802 0.002182 58.6663 0.000488281ZM61.8663 23.4672C61.8663 24.3158 61.5291 25.1298 60.929 25.7299C60.3289 26.33 59.515 26.6672 58.6663 26.6672H45.8663C45.6201 26.6672 45.3816 26.7524 45.1911 26.9082L35.2316 35.0448C35.1405 35.1258 35.0272 35.1777 34.9064 35.1941C34.7856 35.2104 34.6626 35.1904 34.5532 35.1365C34.4228 35.0732 34.3136 34.9734 34.239 34.8491C34.1644 34.7249 34.1275 34.5816 34.1329 34.4368V27.7338C34.1329 27.4509 34.0206 27.1796 33.8205 26.9796C33.6205 26.7795 33.3492 26.6672 33.0663 26.6672H30.9329C30.0843 26.6672 29.2703 26.33 28.6702 25.7299C28.0701 25.1298 27.7329 24.3158 27.7329 23.4672V5.33382C27.7329 4.48513 28.0701 3.6712 28.6702 3.07108C29.2703 2.47096 30.0843 2.13382 30.9329 2.13382H58.6663C59.515 2.13382 60.3289 2.47096 60.929 3.07108C61.5291 3.6712 61.8663 4.48513 61.8663 5.33382V23.4672Z" fill="#95CFBA"/>
<path d="M56.5333 6.40088H33.0667C32.7838 6.40088 32.5125 6.51326 32.3124 6.7133C32.1124 6.91334 32 7.18465 32 7.46755C32 7.75044 32.1124 8.02175 32.3124 8.22179C32.5125 8.42183 32.7838 8.53421 33.0667 8.53421H56.5333C56.8162 8.53421 57.0875 8.42183 57.2876 8.22179C57.4876 8.02175 57.6 7.75044 57.6 7.46755C57.6 7.18465 57.4876 6.91334 57.2876 6.7133C57.0875 6.51326 56.8162 6.40088 56.5333 6.40088Z" fill="#95CFBA"/>
<path d="M56.5333 12.8003H33.0667C32.7838 12.8003 32.5125 12.9127 32.3124 13.1127C32.1124 13.3128 32 13.5841 32 13.867C32 14.1499 32.1124 14.4212 32.3124 14.6212C32.5125 14.8212 32.7838 14.9336 33.0667 14.9336H56.5333C56.8162 14.9336 57.0875 14.8212 57.2876 14.6212C57.4876 14.4212 57.6 14.1499 57.6 13.867C57.6 13.5841 57.4876 13.3128 57.2876 13.1127C57.0875 12.9127 56.8162 12.8003 56.5333 12.8003Z" fill="#95CFBA"/>
<path d="M49.0667 19.2007H33.0667C32.7838 19.2007 32.5125 19.3131 32.3124 19.5131C32.1124 19.7131 32 19.9845 32 20.2674C32 20.5502 32.1124 20.8216 32.3124 21.0216C32.5125 21.2216 32.7838 21.334 33.0667 21.334H49.0667C49.3496 21.334 49.6209 21.2216 49.8209 21.0216C50.021 20.8216 50.1333 20.5502 50.1333 20.2674C50.1333 19.9845 50.021 19.7131 49.8209 19.5131C49.6209 19.3131 49.3496 19.2007 49.0667 19.2007Z" fill="#95CFBA"/>
</g>
<defs>
<clipPath id="clip0_712_13075">
<rect width="64" height="64" fill="white" transform="translate(0 0.000488281)"/>
</clipPath>
</defs>
</svg>
