<svg width="32" height="32" viewBox="0 0 32 32" fill="none" xmlns="http://www.w3.org/2000/svg">
<g id="Group">
<path id="Vector" d="M25.236 17.7552C25.5227 17.5038 25.726 17.171 25.8187 16.8011C25.9115 16.4312 25.8892 16.0418 25.7549 15.6849C25.6206 15.328 25.3807 15.0205 25.0671 14.8035C24.7536 14.5865 24.3813 14.4702 24 14.4702C23.6187 14.4702 23.2464 14.5865 22.9329 14.8035C22.6193 15.0205 22.3794 15.328 22.2451 15.6849C22.1108 16.0418 22.0885 16.4312 22.1813 16.8011C22.274 17.171 22.4773 17.5038 22.764 17.7552C22.2791 17.8117 21.8318 18.044 21.5067 18.4082C21.1817 18.7723 21.0014 19.243 21 19.7312V22.7312C21 22.8638 21.0527 22.9909 21.1464 23.0847C21.2402 23.1785 21.3674 23.2312 21.5 23.2312H26.5C26.6326 23.2312 26.7598 23.1785 26.8536 23.0847C26.9473 22.9909 27 22.8638 27 22.7312V19.7312C26.9986 19.243 26.8183 18.7723 26.4933 18.4082C26.1682 18.044 25.7209 17.8117 25.236 17.7552ZM24 15.4812C24.1731 15.4812 24.3422 15.5325 24.4861 15.6286C24.63 15.7248 24.7422 15.8614 24.8084 16.0213C24.8746 16.1812 24.8919 16.3571 24.8582 16.5269C24.8244 16.6966 24.7411 16.8525 24.6187 16.9749C24.4963 17.0972 24.3404 17.1806 24.1707 17.2143C24.001 17.2481 23.825 17.2308 23.6652 17.1645C23.5053 17.0983 23.3686 16.9862 23.2725 16.8423C23.1763 16.6984 23.125 16.5292 23.125 16.3562C23.1253 16.1242 23.2175 15.9018 23.3816 15.7377C23.5456 15.5737 23.768 15.4814 24 15.4812ZM26 22.2312H22V19.7312C22 19.4659 22.1054 19.2116 22.2929 19.024C22.4804 18.8365 22.7348 18.7312 23 18.7312H25C25.2652 18.7312 25.5196 18.8365 25.7071 19.024C25.8946 19.2116 26 19.4659 26 19.7312V22.2312ZM11.236 10.7552C11.5227 10.5038 11.726 10.171 11.8187 9.80107C11.9115 9.43118 11.8892 9.04182 11.7549 8.68492C11.6206 8.32802 11.3807 8.02054 11.0671 7.80351C10.7536 7.58648 10.3813 7.47021 10 7.47021C9.61867 7.47021 9.24641 7.58648 8.93286 7.80351C8.61932 8.02054 8.3794 8.32802 8.24511 8.68492C8.11082 9.04182 8.08855 9.43118 8.18126 9.80107C8.27397 10.171 8.47725 10.5038 8.764 10.7552C8.27914 10.8117 7.83182 11.044 7.50674 11.4082C7.18166 11.7723 7.00137 12.243 7 12.7312V15.7312C7 15.8638 7.05268 15.9909 7.14645 16.0847C7.24021 16.1785 7.36739 16.2312 7.5 16.2312H12.5C12.6326 16.2312 12.7598 16.1785 12.8536 16.0847C12.9473 15.9909 13 15.8638 13 15.7312V12.7312C12.9986 12.243 12.8183 11.7723 12.4933 11.4082C12.1682 11.044 11.7209 10.8117 11.236 10.7552ZM10 8.48115C10.1731 8.48115 10.3422 8.53247 10.4861 8.62862C10.63 8.72476 10.7422 8.86142 10.8084 9.02131C10.8746 9.18119 10.8919 9.35712 10.8582 9.52686C10.8244 9.69659 10.7411 9.8525 10.6187 9.97487C10.4963 10.0972 10.3404 10.1806 10.1707 10.2143C10.001 10.2481 9.82504 10.2308 9.66515 10.1645C9.50527 10.0983 9.36861 9.98617 9.27246 9.84228C9.17632 9.69839 9.125 9.52921 9.125 9.35615C9.12526 9.12417 9.21754 8.90177 9.38157 8.73773C9.54561 8.57369 9.76802 8.48142 10 8.48115ZM12 15.2312H8V12.7312C8 12.4659 8.10536 12.2116 8.29289 12.024C8.48043 11.8365 8.73478 11.7312 9 11.7312H11C11.2652 11.7312 11.5196 11.8365 11.7071 12.024C11.8946 12.2116 12 12.4659 12 12.7312V15.2312Z" fill="#707070"/>
<path id="Vector_2" d="M30.5 5.23047H25.624C23.2675 3.25483 20.36 2.05242 17.2964 1.78656C14.2328 1.52071 11.1616 2.20429 8.5 3.74447V1.73047C8.5 1.46525 8.39464 1.2109 8.20711 1.02336C8.01957 0.835826 7.76522 0.730469 7.5 0.730469H1.5C1.23478 0.730469 0.98043 0.835826 0.792893 1.02336C0.605357 1.2109 0.5 1.46525 0.5 1.73047V5.73047C0.5 5.99569 0.605357 6.25004 0.792893 6.43758C0.98043 6.62511 1.23478 6.73047 1.5 6.73047H3.319L4.2035 7.46747C2.57963 9.53532 1.52783 11.9937 1.1535 14.5961C0.779172 17.1986 1.09548 19.8538 2.07071 22.2955C3.04594 24.7371 4.64584 26.8796 6.71004 28.5081C8.77425 30.1366 11.2302 31.1939 13.8319 31.5741C16.4335 31.9542 19.0893 31.6439 21.5332 30.6741C23.9771 29.7044 26.1231 28.1093 27.7562 26.0487C29.3894 23.9882 30.4522 21.5346 30.8382 18.9338C31.2242 16.333 30.9198 13.6765 29.9555 11.2305H30.5C30.7652 11.2305 31.0196 11.1251 31.2071 10.9376C31.3946 10.75 31.5 10.4957 31.5 10.2305V6.23047C31.5 5.96525 31.3946 5.7109 31.2071 5.52336C31.0196 5.33583 30.7652 5.23047 30.5 5.23047ZM3.8205 5.84647C3.73055 5.77146 3.61712 5.7304 3.5 5.73047H1.5V1.73047H7.5V5.73047H6C5.92585 5.73045 5.85262 5.74693 5.78562 5.77871C5.71863 5.81049 5.65954 5.85677 5.61263 5.9142C5.56573 5.97163 5.53219 6.03878 5.51444 6.11078C5.49668 6.18277 5.49517 6.25782 5.51 6.33047L5.732 7.44147L3.8205 5.84647ZM30 16.7305C30.0031 18.9621 29.4726 21.1622 28.4528 23.1472C27.4331 25.1322 25.9535 26.8447 24.1376 28.1418C22.3217 29.439 20.222 30.2832 18.0135 30.6042C15.8051 30.9252 13.5519 30.7135 11.4419 29.9869C9.33181 29.2604 7.42603 28.0399 5.8834 26.4273C4.34078 24.8146 3.20601 22.8566 2.57371 20.7164C1.94141 18.5762 1.8299 16.3159 2.24848 14.1238C2.66706 11.9318 3.60359 9.87159 4.98 8.11497L6.18 9.11497C6.25962 9.18136 6.3579 9.22135 6.46125 9.22943C6.5646 9.2375 6.6679 9.21326 6.75686 9.16005C6.84583 9.10683 6.91605 9.02728 6.95782 8.93241C6.99959 8.83753 7.01083 8.73202 6.99 8.63047L6.61 6.73047H7.5C7.76522 6.73047 8.01957 6.62511 8.20711 6.43758C8.39464 6.25004 8.5 5.99569 8.5 5.73047V4.91547C10.8452 3.42321 13.5822 2.6642 16.361 2.73545C19.1399 2.8067 21.8343 3.70498 24.1 5.31547C23.9219 5.3932 23.7703 5.52113 23.6638 5.68363C23.5572 5.84613 23.5003 6.03615 23.5 6.23047V10.2305C23.5 10.4957 23.6054 10.75 23.7929 10.9376C23.9804 11.1251 24.2348 11.2305 24.5 11.2305H25.39L25.01 13.1305C24.9895 13.2355 25.0033 13.3443 25.0493 13.4409C25.0953 13.5376 25.171 13.6169 25.2654 13.6672C25.3598 13.7176 25.4679 13.7364 25.5738 13.7207C25.6796 13.7051 25.7777 13.656 25.8535 13.5805L28.207 11.2305H28.8695C29.6177 12.9675 30.0024 14.8392 30 16.7305ZM30.5 10.2305H28C27.8674 10.2305 27.7402 10.2832 27.6465 10.377L26.314 11.7095L26.49 10.8305C26.5048 10.7578 26.5033 10.6828 26.4856 10.6108C26.4678 10.5388 26.4343 10.4716 26.3874 10.4142C26.3405 10.3568 26.2814 10.3105 26.2144 10.2787C26.1474 10.2469 26.0742 10.2305 26 10.2305H24.5V6.23047H30.5V10.2305Z" fill="#707070"/>
<path id="Vector_3" d="M3 3.23047H4V4.23047H3V3.23047ZM5 3.23047H6V4.23047H5V3.23047ZM26 7.73047H27V8.73047H26V7.73047ZM28 7.73047H29V8.73047H28V7.73047ZM9.625 20.5235C9.85899 20.299 10.0205 20.0096 10.0887 19.6926C10.1569 19.3756 10.1286 19.0454 10.0077 18.7446C9.88668 18.4437 9.67846 18.186 9.40979 18.0044C9.14111 17.8229 8.82426 17.7259 8.5 17.7259C8.17574 17.7259 7.85889 17.8229 7.59021 18.0044C7.32154 18.186 7.11332 18.4437 6.99234 18.7446C6.87136 19.0454 6.84315 19.3756 6.91134 19.6926C6.97954 20.0096 7.14101 20.299 7.375 20.5235C6.98568 20.6089 6.63718 20.8246 6.38715 21.135C6.13712 21.4454 6.00054 21.8319 6 22.2305V24.2305C6 24.3631 6.05268 24.4903 6.14645 24.584C6.24021 24.6778 6.36739 24.7305 6.5 24.7305H10.5C10.6326 24.7305 10.7598 24.6778 10.8536 24.584C10.9473 24.4903 11 24.3631 11 24.2305V22.2305C10.9995 21.8319 10.8629 21.4454 10.6129 21.135C10.3628 20.8246 10.0143 20.6089 9.625 20.5235ZM8.5 18.7305C8.62361 18.7305 8.74445 18.7671 8.84723 18.8358C8.95001 18.9045 9.03012 19.0021 9.07743 19.1163C9.12473 19.2305 9.13711 19.3562 9.11299 19.4774C9.08887 19.5986 9.02935 19.71 8.94194 19.7974C8.85453 19.8848 8.74317 19.9443 8.62193 19.9685C8.50069 19.9926 8.37503 19.9802 8.26082 19.9329C8.14662 19.8856 8.04901 19.8055 7.98033 19.7027C7.91166 19.5999 7.875 19.4791 7.875 19.3555C7.87526 19.1898 7.9412 19.031 8.05835 18.9138C8.1755 18.7967 8.33432 18.7307 8.5 18.7305ZM10 23.7305H7V22.2305C7 22.0316 7.07902 21.8408 7.21967 21.7001C7.36032 21.5595 7.55109 21.4805 7.75 21.4805H9.25C9.44891 21.4805 9.63968 21.5595 9.78033 21.7001C9.92098 21.8408 10 22.0316 10 22.2305V23.7305ZM17.625 24.5235C17.859 24.299 18.0205 24.0096 18.0887 23.6926C18.1569 23.3756 18.1286 23.0454 18.0077 22.7446C17.8867 22.4437 17.6785 22.186 17.4098 22.0044C17.1411 21.8229 16.8243 21.7259 16.5 21.7259C16.1757 21.7259 15.8589 21.8229 15.5902 22.0044C15.3215 22.186 15.1133 22.4437 14.9923 22.7446C14.8714 23.0454 14.8431 23.3756 14.9113 23.6926C14.9795 24.0096 15.141 24.299 15.375 24.5235C14.9857 24.6089 14.6372 24.8246 14.3871 25.135C14.1371 25.4454 14.0005 25.8319 14 26.2305V28.2305C14 28.3631 14.0527 28.4903 14.1464 28.584C14.2402 28.6778 14.3674 28.7305 14.5 28.7305H18.5C18.6326 28.7305 18.7598 28.6778 18.8536 28.584C18.9473 28.4903 19 28.3631 19 28.2305V26.2305C18.9995 25.8319 18.8629 25.4454 18.6129 25.135C18.3628 24.8246 18.0143 24.6089 17.625 24.5235ZM16.5 22.7305C16.6236 22.7305 16.7445 22.7671 16.8472 22.8358C16.95 22.9045 17.0301 23.0021 17.0774 23.1163C17.1247 23.2305 17.1371 23.3562 17.113 23.4774C17.0889 23.5986 17.0294 23.71 16.9419 23.7974C16.8545 23.8848 16.7432 23.9443 16.6219 23.9685C16.5007 23.9926 16.375 23.9802 16.2608 23.9329C16.1466 23.8856 16.049 23.8055 15.9803 23.7027C15.9117 23.5999 15.875 23.4791 15.875 23.3555C15.8753 23.1898 15.9412 23.031 16.0583 22.9138C16.1755 22.7967 16.3343 22.7307 16.5 22.7305ZM18 27.7305H15V26.2305C15 26.0316 15.079 25.8408 15.2197 25.7001C15.3603 25.5595 15.5511 25.4805 15.75 25.4805H17.25C17.4489 25.4805 17.6397 25.5595 17.7803 25.7001C17.921 25.8408 18 26.0316 18 26.2305V27.7305ZM19.125 7.52347C19.359 7.29898 19.5205 7.00962 19.5887 6.69261C19.6569 6.3756 19.6286 6.04544 19.5077 5.74459C19.3867 5.44374 19.1785 5.18596 18.9098 5.00442C18.6411 4.82288 18.3243 4.72586 18 4.72586C17.6757 4.72586 17.3589 4.82288 17.0902 5.00442C16.8215 5.18596 16.6133 5.44374 16.4923 5.74459C16.3714 6.04544 16.3431 6.3756 16.4113 6.69261C16.4795 7.00962 16.641 7.29898 16.875 7.52347C16.4857 7.60888 16.1372 7.82463 15.8871 8.13503C15.6371 8.44544 15.5005 8.83189 15.5 9.23047V11.2305C15.5 11.3631 15.5527 11.4903 15.6464 11.584C15.7402 11.6778 15.8674 11.7305 16 11.7305H20C20.1326 11.7305 20.2598 11.6778 20.3536 11.584C20.4473 11.4903 20.5 11.3631 20.5 11.2305V9.23047C20.4995 8.83189 20.3629 8.44544 20.1129 8.13503C19.8628 7.82463 19.5143 7.60888 19.125 7.52347ZM18 5.73047C18.1236 5.73047 18.2445 5.76712 18.3472 5.8358C18.45 5.90448 18.5301 6.00209 18.5774 6.11629C18.6247 6.2305 18.6371 6.35616 18.613 6.4774C18.5889 6.59864 18.5294 6.71 18.4419 6.79741C18.3545 6.88482 18.2432 6.94434 18.1219 6.96846C18.0007 6.99258 17.875 6.9802 17.7608 6.93289C17.6466 6.88559 17.549 6.80548 17.4803 6.7027C17.4117 6.59992 17.375 6.47908 17.375 6.35547C17.3753 6.18979 17.4412 6.03097 17.5583 5.91382C17.6755 5.79667 17.8343 5.73073 18 5.73047ZM19.5 10.7305H16.5V9.23047C16.5 9.03156 16.579 8.84079 16.7197 8.70014C16.8603 8.55949 17.0511 8.48047 17.25 8.48047H18.75C18.9489 8.48047 19.1397 8.55949 19.2803 8.70014C19.421 8.84079 19.5 9.03156 19.5 9.23047V10.7305Z" fill="#707070"/>
</g>
</svg>
