<svg width="25" height="25" viewBox="0 0 25 25" fill="none" xmlns="http://www.w3.org/2000/svg">
<path d="M18.6201 22.1002C18.3101 22.1002 18.0001 22.0202 17.7201 21.8502L13.7101 19.4702C13.2901 19.4602 12.8701 19.4302 12.4701 19.3702C12.2001 19.3302 11.9701 19.1502 11.8701 18.8902C11.7701 18.6302 11.8201 18.3502 12.0001 18.1402C12.6601 17.3702 13.0001 16.4502 13.0001 15.4702C13.0001 13.0502 10.8701 11.0802 8.25008 11.0802C7.27008 11.0802 6.33007 11.3502 5.54007 11.8702C5.32007 12.0102 5.05007 12.0302 4.81007 11.9202C4.58007 11.8102 4.41008 11.5902 4.38008 11.3302C4.35008 11.0502 4.33008 10.7702 4.33008 10.4802C4.33008 5.52022 8.63008 1.49023 13.9101 1.49023C19.1901 1.49023 23.4901 5.52022 23.4901 10.4802C23.4901 13.2002 22.2301 15.7002 20.0101 17.4102L20.3501 20.1302C20.4301 20.8102 20.1301 21.4503 19.5601 21.8203C19.2801 22.0003 18.9501 22.1002 18.6201 22.1002ZM13.9001 17.9602C14.0401 17.9502 14.1801 17.9903 14.3001 18.0703L18.4901 20.5602C18.6001 20.6302 18.6901 20.6002 18.7501 20.5602C18.8001 20.5302 18.8801 20.4502 18.8601 20.3102L18.4701 17.1502C18.4401 16.8702 18.5601 16.6002 18.7801 16.4402C20.8201 15.0102 21.9901 12.8302 21.9901 10.4602C21.9901 6.3302 18.3701 2.97021 13.9101 2.97021C9.62008 2.97021 6.10007 6.09025 5.84007 10.0103C6.59007 9.72025 7.40008 9.56024 8.24008 9.56024C11.6901 9.56024 14.4901 12.2002 14.4901 15.4502C14.5001 16.3302 14.2901 17.1802 13.9001 17.9602Z" fill="#707070"/>
<path d="M5.32977 22.9803C5.06977 22.9803 4.81977 22.9103 4.58977 22.7603C4.13977 22.4703 3.89978 21.9703 3.95978 21.4403L4.15977 19.9003C2.80977 18.8003 2.00977 17.1703 2.00977 15.4603C2.00977 13.5103 3.02978 11.6903 4.73978 10.6003C5.76978 9.93028 6.98977 9.57031 8.25977 9.57031C11.7098 9.57031 14.5098 12.2103 14.5098 15.4603C14.5098 16.7803 14.0298 18.0803 13.1498 19.1103C12.0198 20.4803 10.3298 21.2803 8.46977 21.3403L6.02977 22.7903C5.80977 22.9203 5.56977 22.9803 5.32977 22.9803ZM8.24977 11.0703C7.26977 11.0703 6.32976 11.3403 5.53976 11.8603C4.25976 12.6803 3.49977 14.0203 3.49977 15.4603C3.49977 16.8503 4.17978 18.1203 5.37978 18.9403C5.60978 19.1003 5.72977 19.3703 5.69977 19.6503L5.47977 21.3603L7.86977 19.9403C7.98977 19.8703 8.11977 19.8303 8.24977 19.8303C9.71977 19.8303 11.1098 19.2003 11.9898 18.1303C12.6498 17.3503 12.9998 16.4303 12.9998 15.4503C12.9998 13.0403 10.8698 11.0703 8.24977 11.0703Z" fill="#707070"/>
</svg>
 