<svg width="25" height="25" viewBox="0 0 25 25" fill="none" xmlns="http://www.w3.org/2000/svg">
<path d="M12.2603 17.2303C11.4103 17.2303 10.5503 17.0103 9.88031 16.5803L3.86031 12.6503C2.74031 11.9203 2.07031 10.6903 2.07031 9.35026C2.07031 8.01026 2.74031 6.78026 3.86031 6.05026L9.89031 2.13026C11.2303 1.26026 13.3203 1.26026 14.6503 2.14026L20.6403 6.07026C21.7503 6.80026 22.4203 8.03026 22.4203 9.36026C22.4203 10.6903 21.7503 11.9203 20.6403 12.6503L14.6503 16.5803C13.9803 17.0203 13.1203 17.2303 12.2603 17.2303ZM12.2603 2.98026C11.6903 2.98026 11.1203 3.11026 10.7103 3.39026L4.69031 7.31026C3.99031 7.77026 3.58031 8.51026 3.58031 9.35026C3.58031 10.1903 3.98031 10.9303 4.69031 11.3903L10.7103 15.3203C11.5403 15.8603 13.0003 15.8603 13.8303 15.3203L19.8203 11.3903C20.5203 10.9303 20.9203 10.1903 20.9203 9.35026C20.9203 8.51026 20.5203 7.77026 19.8203 7.31026L13.8303 3.38026C13.4103 3.12026 12.8403 2.98026 12.2603 2.98026Z" fill="#707070"/>
<path d="M12.2502 22.9805C11.8102 22.9805 11.3602 22.9205 11.0002 22.8005L7.81018 21.7405C6.30018 21.2405 5.11018 19.5905 5.12018 18.0005L5.13018 13.3105C5.13018 12.9005 5.47018 12.5605 5.88018 12.5605C6.29018 12.5605 6.63018 12.9005 6.63018 13.3105L6.62018 18.0005C6.62018 18.9405 7.40018 20.0205 8.29018 20.3205L11.4802 21.3805C11.8802 21.5105 12.6202 21.5105 13.0202 21.3805L16.2102 20.3205C17.1002 20.0205 17.8802 18.9405 17.8802 18.0105V13.3705C17.8802 12.9605 18.2202 12.6205 18.6302 12.6205C19.0402 12.6205 19.3802 12.9605 19.3802 13.3705V18.0105C19.3802 19.6005 18.2002 21.2405 16.6902 21.7505L13.5002 22.8105C13.1402 22.9205 12.6902 22.9805 12.2502 22.9805Z" fill="#707070"/>
<path d="M21.6504 15.9805C21.2404 15.9805 20.9004 15.6405 20.9004 15.2305V9.23047C20.9004 8.82047 21.2404 8.48047 21.6504 8.48047C22.0604 8.48047 22.4004 8.82047 22.4004 9.23047V15.2305C22.4004 15.6405 22.0604 15.9805 21.6504 15.9805Z" fill="#707070"/>
</svg>
