<svg width="22" height="27" viewBox="0 0 22 27" fill="none" xmlns="http://www.w3.org/2000/svg">
<path d="M15.0465 22.3534L15.015 22.3529C14.7499 22.3446 14.4989 22.2315 14.3172 22.0382C14.1355 21.845 14.0379 21.5875 14.046 21.3224L14.414 9.32238C14.4167 9.19067 14.4456 9.06081 14.4992 8.94043C14.5527 8.82005 14.6297 8.71156 14.7256 8.62131C14.8216 8.53107 14.9346 8.46089 15.0581 8.41488C15.1815 8.36887 15.3129 8.34796 15.4445 8.35338C15.7096 8.3616 15.9607 8.47478 16.1424 8.66802C16.3241 8.86126 16.4216 9.11875 16.4135 9.38388L16.0455 21.3839C16.0376 21.6436 15.9289 21.89 15.7424 22.071C15.556 22.252 15.3064 22.3532 15.0465 22.3534ZM7.45252 22.3534C7.19276 22.3532 6.94325 22.252 6.7568 22.0712C6.57034 21.8903 6.46158 21.644 6.45352 21.3844L6.08552 9.38438C6.08146 9.25308 6.1033 9.12227 6.1498 8.99942C6.1963 8.87656 6.26655 8.76407 6.35653 8.66838C6.44652 8.57268 6.55448 8.49565 6.67424 8.44169C6.794 8.38772 6.92323 8.35789 7.05452 8.35388C7.18595 8.34927 7.31699 8.37075 7.44008 8.41705C7.56316 8.46336 7.67586 8.53358 7.77167 8.62367C7.86747 8.71376 7.94449 8.82193 7.99827 8.94193C8.05205 9.06194 8.08154 9.19141 8.08502 9.32288L8.45302 21.3229C8.45709 21.4542 8.43525 21.585 8.38875 21.7078C8.34225 21.8307 8.272 21.9432 8.18201 22.0389C8.09203 22.1346 7.98407 22.2116 7.86431 22.2656C7.74454 22.3195 7.61532 22.3494 7.48402 22.3534H7.45252ZM11.4995 22.3534C11.2343 22.3534 10.98 22.248 10.7924 22.0605C10.6049 21.8729 10.4995 21.6186 10.4995 21.3534V9.35338C10.4995 9.08816 10.6049 8.83381 10.7924 8.64627C10.98 8.45873 11.2343 8.35338 11.4995 8.35338C11.7647 8.35338 12.0191 8.45873 12.2066 8.64627C12.3942 8.83381 12.4995 9.08816 12.4995 9.35338V21.3534C12.4995 21.6186 12.3942 21.8729 12.2066 22.0605C12.0191 22.248 11.7647 22.3534 11.4995 22.3534ZM17.5 26.3534H4.49902C4.23381 26.3534 3.97945 26.248 3.79192 26.0605C3.60438 25.8729 3.49902 25.6186 3.49902 25.3534C3.49902 25.0882 3.60438 24.8338 3.79192 24.6463C3.97945 24.4587 4.23381 24.3534 4.49902 24.3534H17.5C17.7652 24.3534 18.0196 24.4587 18.2071 24.6463C18.3947 24.8338 18.5 25.0882 18.5 25.3534C18.5 25.6186 18.3947 25.8729 18.2071 26.0605C18.0196 26.248 17.7652 26.3534 17.5 26.3534Z" fill="#212121"/>
<path d="M18.4998 25.4031L18.4488 25.4021C18.3176 25.3955 18.189 25.3632 18.0703 25.307C17.9517 25.2507 17.8452 25.1716 17.7571 25.0742C17.6691 24.9767 17.601 24.8629 17.557 24.7392C17.5129 24.6154 17.4936 24.4842 17.5003 24.3531L18.4528 5.30307C18.4673 5.03861 18.5857 4.79057 18.7821 4.61293C18.9786 4.4353 19.2372 4.34244 19.5018 4.35457C19.633 4.3611 19.7616 4.39343 19.8803 4.44969C19.999 4.50596 20.1054 4.58506 20.1935 4.68249C20.2816 4.77991 20.3496 4.89374 20.3937 5.01747C20.4377 5.1412 20.457 5.2724 20.4503 5.40357L19.4978 24.4536C19.485 24.7096 19.3743 24.951 19.1885 25.1277C19.0028 25.3044 18.7562 25.403 18.4998 25.4031Z" fill="#212121"/>
<path d="M17.5001 26.3533C17.2349 26.3533 16.9805 26.2479 16.793 26.0604C16.6055 25.8729 16.5001 25.6185 16.5001 25.3533C16.5001 25.0881 16.6055 24.8337 16.793 24.6462C16.9805 24.4586 17.2349 24.3533 17.5001 24.3533H17.5011C17.5291 23.8013 17.9956 23.3698 18.5496 23.4048C18.6808 23.4113 18.8094 23.4436 18.928 23.4999C19.0467 23.5562 19.1531 23.6353 19.2411 23.7327C19.3292 23.8302 19.3971 23.944 19.4411 24.0677C19.4852 24.1915 19.5044 24.3226 19.4976 24.4538C19.4723 24.9664 19.2508 25.4495 18.8789 25.8032C18.507 26.1568 18.0133 26.3538 17.5001 26.3533ZM3.49961 25.4033C3.24318 25.4031 2.99663 25.3044 2.81089 25.1276C2.62515 24.9508 2.51444 24.7094 2.50161 24.4533L1.54911 5.40329C1.54252 5.27213 1.56181 5.14096 1.60591 5.01726C1.65001 4.89356 1.71803 4.77976 1.80611 4.68235C1.98399 4.48563 2.23273 4.36762 2.49761 4.35429C2.7625 4.34096 3.02183 4.43341 3.21856 4.61129C3.41528 4.78917 3.53329 5.03791 3.54661 5.30279L4.49911 24.3533C4.50572 24.4845 4.48642 24.6156 4.44232 24.7393C4.39823 24.863 4.3302 24.9768 4.24212 25.0742C4.15405 25.1716 4.04765 25.2508 3.929 25.307C3.81035 25.3633 3.68177 25.3957 3.55062 25.4023L3.49961 25.4033Z" fill="#212121"/>
<path d="M4.49974 26.3535C3.98648 26.354 3.49271 26.1569 3.12081 25.8032C2.74891 25.4495 2.52742 24.9662 2.50224 24.4535C2.48891 24.1886 2.58136 23.9293 2.75924 23.7326C2.93711 23.5358 3.18586 23.4178 3.45074 23.4045C3.71563 23.3912 3.97496 23.4836 4.17168 23.6615C4.36841 23.8394 4.48641 24.0881 4.49974 24.353V24.354C4.63291 24.351 4.76533 24.3747 4.88924 24.4236C5.01314 24.4725 5.12602 24.5457 5.22126 24.6388C5.31649 24.7319 5.39216 24.8431 5.44383 24.9659C5.49549 25.0887 5.5221 25.2206 5.5221 25.3538C5.5221 25.487 5.49549 25.6188 5.44383 25.7416C5.39216 25.8644 5.31649 25.9756 5.22126 26.0687C5.12602 26.1619 5.01314 26.235 4.88924 26.2839C4.76533 26.3328 4.63291 26.3565 4.49974 26.3535ZM14.9997 6.35352C14.7345 6.35352 14.4802 6.24816 14.2926 6.06062C14.1051 5.87309 13.9997 5.61873 13.9997 5.35352V2.35352C13.9997 2.0883 14.1051 1.83395 14.2926 1.64641C14.4802 1.45887 14.7345 1.35352 14.9997 1.35352C15.265 1.35352 15.5193 1.45887 15.7068 1.64641C15.8944 1.83395 15.9997 2.0883 15.9997 2.35352V5.35352C15.9997 5.61873 15.8944 5.87309 15.7068 6.06062C15.5193 6.24816 15.265 6.35352 14.9997 6.35352ZM6.99974 6.35352C6.73452 6.35352 6.48017 6.24816 6.29263 6.06062C6.1051 5.87309 5.99974 5.61873 5.99974 5.35352V2.35352C5.99974 2.0883 6.1051 1.83395 6.29263 1.64641C6.48017 1.45887 6.73452 1.35352 6.99974 1.35352C7.26496 1.35352 7.51931 1.45887 7.70685 1.64641C7.89438 1.83395 7.99974 2.0883 7.99974 2.35352V5.35352C7.99974 5.61873 7.89438 5.87309 7.70685 6.06062C7.51931 6.24816 7.26496 6.35352 6.99974 6.35352Z" fill="#212121"/>
<path d="M21 6.35352H0.998047C0.73283 6.35352 0.478476 6.24816 0.29094 6.06062C0.103403 5.87309 -0.00195312 5.61873 -0.00195312 5.35352C-0.00195312 5.0883 0.103403 4.83395 0.29094 4.64641C0.478476 4.45887 0.73283 4.35352 0.998047 4.35352H21.0005C21.1319 4.35355 21.2619 4.37945 21.3832 4.42973C21.5045 4.48002 21.6147 4.5537 21.7076 4.64659C21.8004 4.73947 21.874 4.84972 21.9243 4.97106C21.9745 5.0924 22.0003 5.22244 22.0003 5.35377C22.0003 5.48509 21.9744 5.61512 21.9241 5.73643C21.8738 5.85774 21.8001 5.96796 21.7072 6.0608C21.6143 6.15363 21.5041 6.22727 21.3827 6.27749C21.2614 6.32771 21.1314 6.35355 21 6.35352ZM6.99855 3.35352C6.73342 3.35338 6.47919 3.24797 6.29176 3.06045C6.10433 2.87292 5.99905 2.61865 5.99905 2.35352C5.99905 1.25052 6.89605 0.353516 7.99905 0.353516C8.26426 0.353516 8.51862 0.458872 8.70615 0.646409C8.89369 0.833945 8.99905 1.0883 8.99905 1.35352C8.99905 1.61873 8.89369 1.87309 8.70615 2.06062C8.51862 2.24816 8.26426 2.35352 7.99905 2.35352H7.99805C7.99805 2.90602 7.55105 3.35352 6.99855 3.35352Z" fill="#212121"/>
<path d="M13.999 2.35352H7.99902C7.73381 2.35352 7.47945 2.24816 7.29192 2.06062C7.10438 1.87309 6.99902 1.61873 6.99902 1.35352C6.99902 1.0883 7.10438 0.833945 7.29192 0.646409C7.47945 0.458872 7.73381 0.353516 7.99902 0.353516H13.999C14.2642 0.353516 14.5186 0.458872 14.7061 0.646409C14.8937 0.833945 14.999 1.0883 14.999 1.35352C14.999 1.61873 14.8937 1.87309 14.7061 2.06062C14.5186 2.24816 14.2642 2.35352 13.999 2.35352Z" fill="#212121"/>
<path d="M14.9984 3.35353C14.7332 3.35353 14.4788 3.24817 14.2913 3.06063C14.1038 2.8731 13.9984 2.61874 13.9984 2.35353V2.35253C13.8645 2.35676 13.7311 2.33405 13.6061 2.28572C13.4812 2.2374 13.3672 2.16446 13.271 2.07123C13.1747 1.978 13.0982 1.86638 13.046 1.743C12.9937 1.61963 12.9668 1.48701 12.9668 1.35303C12.9668 1.21904 12.9937 1.08643 13.046 0.963052C13.0982 0.839676 13.1747 0.728059 13.271 0.634829C13.3672 0.541598 13.4812 0.468655 13.6061 0.420332C13.7311 0.372009 13.8645 0.349291 13.9984 0.353527C15.1014 0.353527 15.9984 1.25053 15.9984 2.35353C15.9984 2.61874 15.8931 2.8731 15.7055 3.06063C15.518 3.24817 15.2636 3.35353 14.9984 3.35353Z" fill="#212121"/>
</svg>
