<svg width="64" height="64" viewBox="0 0 64 64" fill="none" xmlns="http://www.w3.org/2000/svg">
<path d="M9.33203 56.7187H54.666H54.668C55.19 56.7177 55.666 56.2727 55.666 55.7187V28.6447C55.666 28.2137 55.336 27.8907 55.43 28.0027C55.427 27.9997 55.427 27.9947 55.424 27.9917L49.155 20.7167V15.4217C49.155 15.2027 49.051 14.9067 48.865 14.7187C48.863 14.7167 48.863 14.7157 48.861 14.7137L41.723 7.57474C41.722 7.57374 41.72 7.57274 41.719 7.57174C41.533 7.38774 41.226 7.28174 41.015 7.28174H15.843C15.29 7.28174 14.843 7.72974 14.843 8.28174V20.7167L8.57403 27.9917C8.46403 28.1187 8.33203 28.4347 8.33203 28.6447V55.7187C8.33203 56.2267 8.79103 56.7187 9.33203 56.7187ZM37.856 43.7877L53.666 30.7637V53.8927L37.856 43.7877ZM51.245 54.7187H12.753L31.999 42.4177L51.245 54.7187ZM26.142 43.7877L10.332 53.8927V30.7637L26.142 43.7877ZM53.241 28.5227L49.155 31.8887V23.7817L53.241 28.5227ZM42.016 10.6967L45.742 14.4227H42.016V10.6967ZM40.016 9.28274V15.4227C40.016 15.9747 40.463 16.4227 41.016 16.4227H47.156V33.5367L36.085 42.6567L32.537 40.3887C32.209 40.1787 31.789 40.1787 31.461 40.3887L27.913 42.6567L16.842 33.5367V9.28274H40.016ZM14.843 31.8887L10.757 28.5227L14.843 23.7817V31.8887Z" fill="#95CFBA"/>
<path d="M30.1455 35.4714C30.7645 35.5834 31.3825 35.6384 31.9955 35.6384C34.4845 35.6384 36.8685 34.7284 38.7305 33.0274C39.1385 32.6554 39.1685 32.0224 38.7945 31.6144C38.4205 31.2064 37.7885 31.1784 37.3815 31.5504C35.5265 33.2454 33.0185 33.9554 30.5005 33.5034C27.3275 32.9304 24.7825 30.4234 24.1695 27.2664C23.7035 24.8644 24.3105 22.4264 25.8335 20.5784C27.3575 18.7294 29.6045 17.6694 31.9975 17.6694C36.3995 17.6694 39.9815 21.2514 39.9815 25.6684C39.9775 26.3854 39.4195 27.0104 38.7115 27.0914C38.4335 27.1234 38.1495 27.1304 37.8685 27.1084C37.1785 27.0564 36.6165 26.3834 36.6165 25.6094V21.5094C36.6165 20.9574 36.1695 20.5094 35.6165 20.5094C35.0635 20.5094 34.6165 20.9574 34.6165 21.5094V21.8554C33.8705 21.3394 32.9695 21.0334 31.9965 21.0334C29.4485 21.0334 27.3765 23.1064 27.3765 25.6544C27.3765 28.2024 29.4485 30.2754 31.9965 30.2754C33.5765 30.2754 34.9705 29.4764 35.8045 28.2634C36.3295 28.7334 36.9865 29.0474 37.7185 29.1024C38.1235 29.1334 38.5355 29.1234 38.9395 29.0784C40.6645 28.8814 41.9715 27.4194 41.9815 25.6544C41.9815 20.1484 37.5025 15.6694 31.9975 15.6694C29.0055 15.6694 26.1955 16.9954 24.2905 19.3064C22.3855 21.6174 21.6255 24.6574 22.2065 27.6484C22.9775 31.6084 26.1675 34.7524 30.1455 35.4714ZM31.9985 28.2744C30.5545 28.2744 29.3785 27.0984 29.3785 25.6534C29.3785 24.2084 30.5545 23.0324 31.9985 23.0324C33.4425 23.0324 34.6185 24.2084 34.6185 25.6534C34.6185 27.0984 33.4425 28.2744 31.9985 28.2744Z" fill="#95CFBA"/>
</svg>
