<svg width="32" height="32" viewBox="0 0 32 32" fill="none" xmlns="http://www.w3.org/2000/svg">
<rect width="32" height="32" rx="5.33333" fill="#F7F7F7"/>
<path d="M16 14.5459V17.6441H20.3054C20.1164 18.6404 19.549 19.4841 18.6981 20.0514L21.2945 22.0659C22.8072 20.6696 23.68 18.6187 23.68 16.1823C23.68 15.6151 23.6291 15.0696 23.5345 14.546L16 14.5459Z" fill="#4285F4"/>
<path d="M11.5167 17.5225L10.9312 17.9707L8.8584 19.5852C10.1748 22.1961 12.8727 23.9998 16 23.9998C18.1599 23.9998 19.9708 23.287 21.2945 22.0653L18.6981 20.0507C17.9854 20.5307 17.0763 20.8216 16 20.8216C13.92 20.8216 12.1528 19.418 11.52 17.5271L11.5167 17.5225Z" fill="#34A853"/>
<path d="M8.85812 12.4141C8.31269 13.4904 8 14.7049 8 15.9995C8 17.294 8.31269 18.5086 8.85812 19.5849C8.85812 19.5921 11.52 17.5194 11.52 17.5194C11.36 17.0394 11.2654 16.5304 11.2654 15.9994C11.2654 15.4684 11.36 14.9593 11.52 14.4793L8.85812 12.4141Z" fill="#FBBC05"/>
<path d="M16.0002 11.1855C17.1784 11.1855 18.2256 11.5927 19.062 12.3782L21.3529 10.0873C19.9638 8.79278 18.1602 8 16.0002 8C12.8729 8 10.1748 9.79636 8.8584 12.4146L11.5202 14.48C12.1529 12.5891 13.9202 11.1855 16.0002 11.1855Z" fill="#EA4335"/>
</svg>
