<svg width="25" height="25" viewBox="0 0 25 25" fill="none" xmlns="http://www.w3.org/2000/svg">
<path d="M12.7603 17.2303C11.9103 17.2303 11.0503 17.0103 10.3803 16.5803L4.36031 12.6503C3.24031 11.9203 2.57031 10.6903 2.57031 9.35026C2.57031 8.01026 3.24031 6.78026 4.36031 6.05026L10.3903 2.13026C11.7303 1.26026 13.8203 1.26026 15.1503 2.14026L21.1403 6.07026C22.2503 6.80026 22.9203 8.03026 22.9203 9.36026C22.9203 10.6903 22.2503 11.9203 21.1403 12.6503L15.1503 16.5803C14.4803 17.0203 13.6203 17.2303 12.7603 17.2303ZM12.7603 2.98026C12.1903 2.98026 11.6203 3.11026 11.2103 3.39026L5.19031 7.31026C4.49031 7.77026 4.08031 8.51026 4.08031 9.35026C4.08031 10.1903 4.48031 10.9303 5.19031 11.3903L11.2103 15.3203C12.0403 15.8603 13.5003 15.8603 14.3303 15.3203L20.3203 11.3903C21.0203 10.9303 21.4203 10.1903 21.4203 9.35026C21.4203 8.51026 21.0203 7.77026 20.3203 7.31026L14.3303 3.38026C13.9103 3.12026 13.3403 2.98026 12.7603 2.98026Z" fill="#707070"/>
<path d="M12.7502 22.9805C12.3102 22.9805 11.8602 22.9205 11.5002 22.8005L8.31018 21.7405C6.80018 21.2405 5.61018 19.5905 5.62018 18.0005L5.63018 13.3105C5.63018 12.9005 5.97018 12.5605 6.38018 12.5605C6.79018 12.5605 7.13018 12.9005 7.13018 13.3105L7.12018 18.0005C7.12018 18.9405 7.90018 20.0205 8.79018 20.3205L11.9802 21.3805C12.3802 21.5105 13.1202 21.5105 13.5202 21.3805L16.7102 20.3205C17.6002 20.0205 18.3802 18.9405 18.3802 18.0105V13.3705C18.3802 12.9605 18.7202 12.6205 19.1302 12.6205C19.5402 12.6205 19.8802 12.9605 19.8802 13.3705V18.0105C19.8802 19.6005 18.7002 21.2405 17.1902 21.7505L14.0002 22.8105C13.6402 22.9205 13.1902 22.9805 12.7502 22.9805Z" fill="#707070"/>
<path d="M22.1504 15.9805C21.7404 15.9805 21.4004 15.6405 21.4004 15.2305V9.23047C21.4004 8.82047 21.7404 8.48047 22.1504 8.48047C22.5604 8.48047 22.9004 8.82047 22.9004 9.23047V15.2305C22.9004 15.6405 22.5604 15.9805 22.1504 15.9805Z" fill="#707070"/>
</svg>
 