<svg width="40" height="41" viewBox="0 0 40 41" fill="none" xmlns="http://www.w3.org/2000/svg">
<g clip-path="url(#clip0_695_12203)">
<path d="M20 35.8176C19.4304 35.8176 18.8815 35.6113 18.4536 35.2365C16.8377 33.8235 15.2798 32.4957 13.9053 31.3245L13.8983 31.3184C9.86842 27.8842 6.3885 24.9185 3.96726 21.9971C1.2607 18.7312 0 15.6345 0 12.2516C0 8.96491 1.12703 5.93265 3.1732 3.71312C5.24382 1.46734 8.08498 0.230469 11.1743 0.230469C13.4833 0.230469 15.5978 0.960467 17.4591 2.4C18.3984 3.12656 19.2498 4.01585 20 5.05312C20.7504 4.01585 21.6015 3.12656 22.5411 2.4C24.4025 0.960467 26.517 0.230469 28.826 0.230469C31.9149 0.230469 34.7564 1.46734 36.827 3.71312C38.8732 5.93265 39.9999 8.96491 39.9999 12.2516C39.9999 15.6344 38.7395 18.7311 36.033 21.9968C33.6117 24.9185 30.1321 27.8839 26.1028 31.3178C24.7259 32.4909 23.1656 33.8208 21.546 35.2371C21.118 35.6115 20.5686 35.8177 20 35.8176ZM11.1743 2.57359C8.74725 2.57359 6.51764 3.54226 4.89562 5.30124C3.24953 7.08686 2.34281 9.55514 2.34281 12.2516C2.34281 15.0968 3.40023 17.6413 5.77116 20.5021C8.06272 23.2672 11.4712 26.1719 15.4178 29.5353L15.425 29.5413C16.8047 30.7171 18.3688 32.0502 19.9966 33.4735C21.6342 32.0474 23.2007 30.7123 24.5831 29.5346C28.5293 26.1713 31.9375 23.2672 34.2291 20.5021C36.5997 17.6413 37.6571 15.0968 37.6571 12.2516C37.6571 9.55506 36.7504 7.08678 35.1043 5.30124C33.4826 3.54226 31.2528 2.57359 28.826 2.57359C27.048 2.57359 25.4156 3.13882 23.9743 4.25327C22.6898 5.24694 21.795 6.50304 21.2703 7.38194C21.0007 7.83389 20.5258 8.10366 20 8.10366C19.4741 8.10366 18.9993 7.83389 18.7295 7.38194C18.2053 6.50304 17.3104 5.24694 16.0256 4.25327C14.5843 3.13882 12.9519 2.57359 11.1743 2.57359Z" fill="#707070"/>
</g>
<defs>
<clipPath id="clip0_695_12203">
<rect width="40" height="40" fill="white" transform="translate(0 0.230469)"/>
</clipPath>
</defs>
</svg>
