<svg width="32" height="32" viewBox="0 0 32 32" fill="none" xmlns="http://www.w3.org/2000/svg">
<rect width="32" height="32" rx="5.33333" fill="url(#paint0_linear_695_11042)"/>
<path d="M13.337 16.0413C13.337 14.5673 14.5312 13.372 16.0048 13.372C17.4784 13.372 18.6733 14.5673 18.6733 16.0413C18.6733 17.5153 17.4784 18.7105 16.0048 18.7105C14.5312 18.7105 13.337 17.5153 13.337 16.0413ZM11.8944 16.0413C11.8944 18.3121 13.7346 20.1528 16.0048 20.1528C18.275 20.1528 20.1152 18.3121 20.1152 16.0413C20.1152 13.7705 18.275 11.9297 16.0048 11.9297C13.7346 11.9297 11.8944 13.7705 11.8944 16.0413ZM19.3173 11.7667C19.3172 11.9567 19.3735 12.1425 19.479 12.3006C19.5845 12.4587 19.7344 12.5819 19.9099 12.6547C20.0854 12.7275 20.2786 12.7466 20.4649 12.7096C20.6513 12.6726 20.8225 12.5811 20.9568 12.4468C21.0912 12.3125 21.1828 12.1413 21.2199 11.9549C21.2571 11.7686 21.2381 11.5753 21.1655 11.3997C21.0929 11.2241 20.9698 11.074 20.8119 10.9684C20.654 10.8627 20.4683 10.8063 20.2783 10.8062H20.2779C20.0232 10.8064 19.779 10.9076 19.5989 11.0877C19.4188 11.2678 19.3175 11.512 19.3173 11.7667ZM12.7709 22.5589C11.9904 22.5233 11.5662 22.3933 11.2843 22.2834C10.9106 22.1379 10.644 21.9646 10.3636 21.6845C10.0832 21.4045 9.90969 21.138 9.76483 20.7641C9.65494 20.4823 9.52495 20.0579 9.48947 19.2772C9.45066 18.4332 9.44291 18.1796 9.44291 16.0414C9.44291 13.9031 9.4513 13.6502 9.48947 12.8055C9.52501 12.0249 9.65597 11.6013 9.76483 11.3186C9.91033 10.9447 10.0836 10.678 10.3636 10.3976C10.6436 10.1171 10.91 9.94352 11.2843 9.79863C11.5661 9.68871 11.9904 9.55867 12.7709 9.52318C13.6146 9.48436 13.8681 9.47661 16.0048 9.47661C18.1415 9.47661 18.3952 9.485 19.2397 9.52318C20.0201 9.55873 20.4436 9.68973 20.7262 9.79863C21.1 9.94352 21.3666 10.1175 21.647 10.3976C21.9273 10.6776 22.1002 10.9447 22.2457 11.3186C22.3556 11.6004 22.4856 12.0249 22.5211 12.8055C22.5599 13.6502 22.5676 13.9031 22.5676 16.0414C22.5676 18.1796 22.5599 18.4325 22.5211 19.2772C22.4856 20.0579 22.3549 20.4822 22.2457 20.7641C22.1002 21.138 21.9269 21.4047 21.647 21.6845C21.367 21.9643 21.1 22.1379 20.7262 22.2834C20.4445 22.3934 20.0201 22.5234 19.2397 22.5589C18.3959 22.5977 18.1425 22.6055 16.0048 22.6055C13.8671 22.6055 13.6144 22.5977 12.7709 22.5589ZM12.7046 8.08267C11.8524 8.12149 11.2701 8.25665 10.7616 8.45459C10.2349 8.65899 9.7891 8.93322 9.34359 9.37816C8.89807 9.8231 8.62463 10.2698 8.42028 10.7966C8.22241 11.3056 8.08728 11.8877 8.04848 12.7401C8.00903 13.5939 8 13.8668 8 16.0413C8 18.2158 8.00903 18.4887 8.04848 19.3425C8.08728 20.1949 8.22241 20.777 8.42028 21.286C8.62463 21.8125 8.89814 22.2597 9.34359 22.7044C9.78904 23.1492 10.2349 23.423 10.7616 23.628C11.2711 23.8259 11.8524 23.9611 12.7046 23.9999C13.5585 24.0387 13.831 24.0484 16.0048 24.0484C18.1786 24.0484 18.4515 24.0394 19.305 23.9999C20.1572 23.9611 20.7392 23.8259 21.248 23.628C21.7743 23.423 22.2205 23.1494 22.666 22.7044C23.1115 22.2595 23.3844 21.8125 23.5893 21.286C23.7872 20.777 23.923 20.1949 23.9611 19.3425C23.9999 18.4881 24.009 18.2158 24.009 16.0413C24.009 13.8668 23.9999 13.5939 23.9611 12.7401C23.9223 11.8877 23.7872 11.3052 23.5893 10.7966C23.3844 10.2701 23.1108 9.8238 22.666 9.37816C22.2212 8.93251 21.7743 8.65899 21.2486 8.45459C20.7392 8.25665 20.1572 8.12085 19.3057 8.08267C18.4522 8.04385 18.1793 8.03418 16.0054 8.03418C13.8316 8.03418 13.5585 8.04321 12.7046 8.08267Z" fill="white"/>
<defs>
<linearGradient id="paint0_linear_695_11042" x1="31.385" y1="32" x2="-0.615039" y2="-8.6135e-07" gradientUnits="userSpaceOnUse">
<stop stop-color="#FBE18A"/>
<stop offset="0.21" stop-color="#FCBB45"/>
<stop offset="0.38" stop-color="#F75274"/>
<stop offset="0.52" stop-color="#D53692"/>
<stop offset="0.74" stop-color="#8F39CE"/>
<stop offset="1" stop-color="#5B4FE9"/>
</linearGradient>
</defs>
</svg>
