<svg width="60" height="61" viewBox="0 0 60 61" fill="none" xmlns="http://www.w3.org/2000/svg">
<g clip-path="url(#clip0_956_757)">
<path fill-rule="evenodd" clip-rule="evenodd" d="M33 48.5C34.5913 48.5 36.1174 49.1321 37.2426 50.2574C38.3679 51.3826 39 52.9087 39 54.5C39 56.0913 38.3679 57.6174 37.2426 58.7426C36.1174 59.8679 34.5913 60.5 33 60.5C31.4087 60.5 29.8826 59.8679 28.7574 58.7426C27.6321 57.6174 27 56.0913 27 54.5C27 52.9087 27.6321 51.3826 28.7574 50.2574C29.8826 49.1321 31.4087 48.5 33 48.5ZM14.223 39.5C16.2121 39.5 18.1198 40.2902 19.5263 41.6967C20.9328 43.1032 21.723 45.0109 21.723 47C21.723 48.9891 20.9328 50.8968 19.5263 52.3033C18.1198 53.7098 16.2121 54.5 14.223 54.5C12.2339 54.5 10.3262 53.7098 8.9197 52.3033C7.51318 50.8968 6.723 48.9891 6.723 47C6.723 45.0109 7.51318 43.1032 8.9197 41.6967C10.3262 40.2902 12.2339 39.5 14.223 39.5ZM48.957 41C50.5483 41 52.0744 41.6321 53.1996 42.7574C54.3249 43.8826 54.957 45.4087 54.957 47C54.957 48.5913 54.3249 50.1174 53.1996 51.2426C52.0744 52.3679 50.5483 53 48.957 53C47.3657 53 45.8396 52.3679 44.7144 51.2426C43.5891 50.1174 42.957 48.5913 42.957 47C42.957 45.4087 43.5891 43.8826 44.7144 42.7574C45.8396 41.6321 47.3657 41 48.957 41ZM55.5 28.457C56.6935 28.457 57.8381 28.9311 58.682 29.775C59.5259 30.6189 60 31.7635 60 32.957C60 34.1505 59.5259 35.2951 58.682 36.139C57.8381 36.9829 56.6935 37.457 55.5 37.457C54.3065 37.457 53.1619 36.9829 52.318 36.139C51.4741 35.2951 51 34.1505 51 32.957C51 31.7635 51.4741 30.6189 52.318 29.775C53.1619 28.9311 54.3065 28.457 55.5 28.457ZM7.5 18.5C9.48912 18.5 11.3968 19.2902 12.8033 20.6967C14.2098 22.1032 15 24.0109 15 26C15 27.9891 14.2098 29.8968 12.8033 31.3033C11.3968 32.7098 9.48912 33.5 7.5 33.5C5.51088 33.5 3.60322 32.7098 2.1967 31.3033C0.790176 29.8968 0 27.9891 0 26C0 24.0109 0.790176 22.1032 2.1967 20.6967C3.60322 19.2902 5.51088 18.5 7.5 18.5ZM53.358 16.121C54.1536 16.121 54.9167 16.4371 55.4793 16.9997C56.0419 17.5623 56.358 18.3253 56.358 19.121C56.358 19.9166 56.0419 20.6797 55.4793 21.2423C54.9167 21.8049 54.1536 22.121 53.358 22.121C52.5623 22.121 51.7993 21.8049 51.2367 21.2423C50.6741 20.6797 50.358 19.9166 50.358 19.121C50.358 18.3253 50.6741 17.5623 51.2367 16.9997C51.7993 16.4371 52.5623 16.121 53.358 16.121ZM24 0.5C26.3869 0.5 28.6761 1.44821 30.364 3.13604C32.0518 4.82387 33 7.11305 33 9.5C33 11.8869 32.0518 14.1761 30.364 15.864C28.6761 17.5518 26.3869 18.5 24 18.5C21.6131 18.5 19.3239 17.5518 17.636 15.864C15.9482 14.1761 15 11.8869 15 9.5C15 7.11305 15.9482 4.82387 17.636 3.13604C19.3239 1.44821 21.6131 0.5 24 0.5V0.5ZM46.5 9.5C46.8978 9.5 47.2794 9.65804 47.5607 9.93934C47.842 10.2206 48 10.6022 48 11C48 11.3978 47.842 11.7794 47.5607 12.0607C47.2794 12.342 46.8978 12.5 46.5 12.5C46.1022 12.5 45.7206 12.342 45.4393 12.0607C45.158 11.7794 45 11.3978 45 11C45 10.6022 45.158 10.2206 45.4393 9.93934C45.7206 9.65804 46.1022 9.5 46.5 9.5Z" fill="#3B9C79"/>
</g>
<defs>
<clipPath id="clip0_956_757">
<rect width="60" height="60" fill="white" transform="translate(0 0.5)"/>
</clipPath>
</defs>
</svg>
