<svg width="120" height="147" viewBox="0 0 120 147" fill="none" xmlns="http://www.w3.org/2000/svg">
<g clip-path="url(#clip0_712_17579)">
<path d="M92.1897 132.13C92.2556 132.143 92.3157 132.129 92.3695 132.089C92.8146 132.211 92.9941 131.476 93.5891 131.776C93.2971 132.124 93.0414 132.453 92.7609 132.759C90.1116 135.647 86.9557 137.907 83.7007 140.043C83.6153 140.026 83.5458 140.053 83.492 140.121C82.7018 140.559 81.9119 140.996 81.1217 141.433L81.1291 141.427C79.2516 142.204 77.3741 142.982 75.4969 143.759L75.5053 143.749C75.2412 143.808 74.9708 143.848 74.7137 143.929C65.6451 146.79 56.4237 147.408 47.0376 145.901C38.0238 144.453 29.8489 141.022 22.6205 135.469C14.0256 128.867 7.80554 120.441 3.85569 110.345C3.44679 109.3 3.02278 108.26 2.60582 107.217L2.62699 107.139L2.56786 107.084C2.56114 106.968 2.57726 106.846 2.54434 106.738C-0.897838 95.4763 -0.815521 84.2191 2.59776 72.9709C4.7138 65.9984 8.09482 59.6896 12.6955 54.0464C14.2625 52.1245 15.9445 50.2961 17.5737 48.4253L17.5713 48.428C19.0641 47.1434 20.5592 45.8615 22.0486 44.5732C24.1882 42.7226 26.6338 41.2855 28.8517 39.541C29.5384 38.9743 30.4873 38.8319 31.1045 38.1523C32.2189 37.6225 33.3263 37.0804 34.2799 36.2778L34.3407 36.2923L34.3746 36.2399C35.0093 36.083 35.5103 35.695 36.0058 35.2973L36.0126 35.2949C37.4183 34.6526 38.7542 33.8904 40.001 32.975H40.002C41.1672 32.5171 42.2011 31.8123 43.2188 31.1156C44.7509 30.0669 46.4436 29.2284 47.7287 27.8376L47.725 27.841C49.3771 26.8913 50.6797 25.5218 52.0152 24.2032C52.9741 23.2566 54.1007 22.4265 54.57 21.0727C56.5339 19.1173 57.8681 16.7813 58.7437 14.1677C59.0763 13.8056 59.2362 13.38 59.2167 12.8879C59.2167 12.8879 59.2063 12.8953 59.206 12.8953C59.8457 11.7165 60.051 10.4319 60.1263 9.11573C60.2596 8.94004 60.2922 8.75898 60.1551 8.56851C60.4713 8.3132 60.3994 7.94099 60.438 7.60607C60.7267 5.10644 60.554 2.62091 60.1518 0C60.4821 0.43805 60.7283 0.764571 60.9746 1.09109C60.945 1.3202 60.9484 1.53653 61.197 1.65646C61.534 2.70926 61.8919 3.75433 62.416 4.73322C63.2227 7.66788 63.6413 10.6506 63.6847 13.7001C63.7747 19.9954 61.5391 25.4751 57.9393 30.4989C57.7145 30.8126 57.5187 31.1465 57.309 31.471C53.5718 35.2889 49.1724 38.2037 44.5563 40.8243C41.1723 42.7454 37.7278 44.5591 34.4274 46.6291C20.2841 55.4989 13.144 68.5739 11.5904 84.9104C10.8049 93.1695 12.4979 101.077 15.7234 108.671C16.4041 110.274 17.1896 111.839 18.2574 113.236C19.3779 116.247 21.1926 118.84 23.1483 121.348C24.0058 122.642 25.0302 123.804 26.0674 124.952C27.074 126.066 28.1115 127.152 29.3113 128.439C29.1988 128.039 29.1957 127.869 29.1134 127.758C26.5398 124.292 24.5054 120.517 22.7109 116.603C21.1338 112.388 20.103 108.047 19.7539 103.555C19.3073 97.8087 19.6386 92.1191 21.0666 86.5141C21.3229 85.5077 21.5272 84.4878 21.7553 83.4743C22.0846 83.259 22.0893 82.8821 22.2103 82.5626C22.7714 81.0778 23.3056 79.5819 23.9016 78.1112C25.2025 74.9028 26.9426 71.9224 28.7317 68.97C30.624 66.4844 32.5163 63.9989 34.4086 61.5134C35.1887 61.0488 35.78 60.4018 36.2303 59.6194C37.4953 58.3872 38.7602 57.1554 40.0252 55.9235C42.1352 54.3017 44.1296 52.5434 46.1042 50.762C50.22 47.6453 54.1581 44.3599 57.4921 40.3604C61.0613 36.0793 63.6575 31.3414 65.0535 25.9561C65.373 24.7236 65.8273 23.4985 65.7201 22.184C66.0554 21.2669 66.3437 21.7076 66.6296 22.2159C66.8389 24.7327 67.2112 27.2467 66.9276 29.7786C65.8353 39.5279 62.1506 48.1126 55.5531 55.4479C51.8314 59.5858 47.8829 63.5172 44.3198 67.7972C43.3774 68.9293 42.3936 70.0342 41.6218 71.2996C41.0359 71.8761 40.546 72.5258 40.1479 73.2446C40.0961 73.3246 40.0444 73.4045 39.9926 73.4845C39.6691 73.7932 39.3976 74.1392 39.2289 74.5585C39.1705 74.6448 39.112 74.7311 39.0536 74.8171C38.515 75.1342 38.392 75.7258 38.1252 76.2226L38.1225 76.2284C37.3649 77.1498 36.8206 78.1999 36.2965 79.2621C33.9073 83.212 32.1574 87.4416 30.9671 91.888C28.2073 102.198 28.8641 112.213 33.7349 121.828C33.8572 122.069 34.0205 122.289 34.1646 122.519C34.2238 122.628 34.2826 122.738 34.3417 122.848C34.3229 122.91 34.3427 122.955 34.4018 122.982C34.8719 124.032 35.4844 124.991 36.2138 125.878C36.3415 126.096 36.4692 126.315 36.5972 126.533C37.084 127.223 37.4949 127.97 38.1313 128.545C38.2102 128.638 38.2895 128.732 38.3685 128.825C38.5099 129.156 38.7455 129.403 39.0482 129.591C43.0276 134.463 48.0949 137.74 54.0805 139.527C65.3401 142.887 76.1366 141.519 86.4531 136.026C88.1962 135.098 89.9215 134.117 91.4539 132.847C91.8584 132.773 91.9404 132.367 92.189 132.132L92.1897 132.13Z" fill="#3B9C79"/>
<path d="M108.969 87.6936C112.274 85.3914 114.654 82.2744 116.696 78.8721C118.083 76.5613 118.992 74.0495 119.665 71.3369C119.998 72.6329 119.965 73.8678 119.988 75.0923C120.074 79.6558 119.729 84.1777 118.621 88.6221C118.565 88.8441 118.579 89.083 118.56 89.3141C117.236 93.9055 115.551 98.3576 113.421 102.639L113.42 102.641C113.139 102.888 113.014 103.214 112.95 103.572V103.572C112.747 103.668 112.701 103.858 112.665 104.053C112.606 104.154 112.548 104.256 112.489 104.358C112.354 104.566 112.219 104.773 112.084 104.981C112.014 105.028 111.986 105.092 111.999 105.175C111.758 105.363 111.586 105.594 111.535 105.903L111.539 105.897C111.441 106.05 111.343 106.203 111.246 106.356C111.191 106.441 111.136 106.527 111.081 106.612C110.534 107.261 110.069 107.965 109.68 108.719L109.679 108.72C109.487 108.804 109.428 108.975 109.392 109.161L109.407 109.142C109.084 109.392 108.853 109.711 108.708 110.092L108.713 110.088C107.75 111.278 106.787 112.468 105.824 113.658C105.775 113.672 105.747 113.704 105.739 113.755C105.164 114.406 104.588 115.056 104.013 115.707C103.946 115.778 103.878 115.85 103.811 115.921C98.7731 121.215 93.0446 125.58 86.4687 128.804L86.3709 128.801L86.2963 128.864C85.5783 129.157 84.86 129.45 84.142 129.744L84.0425 129.735L83.9619 129.794C83.4861 129.945 83.007 130.086 82.535 130.248C78.448 131.649 74.2264 132.315 69.9284 132.57C69.1453 132.57 68.3621 132.571 67.5789 132.571C66.1862 132.455 64.7926 132.348 63.4009 132.219C57.8578 131.704 52.3184 131.215 46.993 133.691C46.8005 128.282 49.5086 124.496 53.4752 121.376C55.5721 119.726 57.9983 118.686 60.42 117.638C60.4842 117.675 60.5343 117.661 60.5709 117.597C65.3654 116.149 70.3357 115.823 75.2733 115.277C79.5981 114.799 83.7338 113.658 87.5784 111.574C92.595 108.854 96.4226 104.891 99.3568 100.062C100.291 98.5252 101.391 97.031 101.763 95.1992C101.763 95.1992 101.769 95.1861 101.769 95.1861C102.391 94.5236 102.611 93.6989 102.716 92.8286C102.716 92.8286 102.729 92.7439 102.729 92.7439C103.176 91.3122 104.112 90.3726 105.544 89.9167C105.67 89.8768 105.757 89.7169 105.862 89.6127L105.946 89.5875C107.13 89.2385 108.064 88.4884 108.97 87.6936H108.969Z" fill="#3B9C79"/>
<path d="M47.3171 106.42C49.5094 103.967 51.8398 101.672 54.5848 99.8214C59.1441 96.7477 64.2105 95.0049 69.5782 94.0482C74.2706 93.212 79.0214 93.2309 83.7632 93.1267C86.6362 93.0636 89.5186 93.2641 92.3795 92.8351C94.6958 92.9594 96.8874 92.2496 99.1217 91.8267C99.3791 91.778 99.6771 91.56 99.8868 91.7713C100.149 92.0353 99.8928 92.3712 99.7897 92.6272C99.1997 94.0929 98.568 95.5417 97.9502 96.9963C97.2285 98.1404 96.5756 99.3357 95.7699 100.417C94.3897 102.269 92.606 103.732 90.9502 105.328C88.3675 107.817 85.3561 109.301 82.05 110.357C79.134 111.29 76.1111 111.485 73.0667 111.525C69.342 111.574 65.6088 111.215 61.8935 111.776C59.4761 112.141 57.0906 112.592 54.9389 113.841C54.9389 113.841 54.9332 113.842 54.9336 113.842C51.2465 115.188 48.3288 117.555 45.9406 120.623C45.8804 120.644 45.8488 120.687 45.8468 120.75C45.0354 121.61 44.4011 122.588 43.9183 123.665C43.847 123.805 43.7755 123.945 43.7043 124.085C43.168 124.973 42.5804 125.84 42.5088 126.924C42.5088 126.924 42.5206 126.9 42.5206 126.9C42.3821 126.913 42.2434 126.926 42.105 126.94C42.105 126.94 42.1097 126.95 42.1093 126.95C41.3624 123.617 41.4945 120.287 42.111 116.951C42.3008 115.924 42.8146 114.981 42.8545 113.921L42.7931 113.887C42.7931 113.887 42.8566 113.917 42.8562 113.917C43.6646 113.134 43.7016 111.986 44.2116 111.061L44.263 111.028C44.263 111.028 44.2519 110.968 44.2516 110.967C44.9212 110.03 45.6056 109.101 46.0965 108.051L46.1008 108.037C46.6562 107.611 47.0379 107.054 47.3171 106.42Z" fill="#3B9C79"/>
<path d="M69.9219 87.6906C69.7163 87.6771 69.5106 87.6634 69.3043 87.6499C67.5673 87.2646 65.8195 86.9623 64.1843 86.1742C61.9997 85.1214 60.2841 83.5382 58.7336 81.7312C56.5463 78.4979 55.5645 74.9824 56.1098 71.0628C56.3679 69.2075 57.1111 67.505 57.5835 65.7196C58.0858 65.1928 58.3418 64.5371 58.5582 63.8605C59.0272 63.8837 59.0396 63.4739 59.1902 63.1947C59.2651 63.0916 59.34 62.9888 59.4149 62.8857C59.4569 62.8259 59.4993 62.7657 59.5413 62.7059C60.2976 61.6972 61.0156 60.6561 61.8246 59.6917C62.3185 59.1031 62.882 58.5878 62.9955 57.7789C65.9945 53.9648 68.665 49.9481 70.4877 45.4265C70.5925 45.1665 70.6241 44.9371 70.8831 44.8732C71.1852 44.799 71.2531 45.0882 71.3381 45.2901C72.6343 48.3669 74.372 51.1877 76.2465 53.9406C78.629 57.4399 81.3081 60.7391 83.4036 64.4316C83.9772 65.4424 84.4358 66.5184 84.9472 67.5645C85.8154 70.1441 86.1376 72.7848 85.7172 75.4819C85.1955 78.8311 83.4873 81.5582 81.1428 83.9312L81.1438 83.9305C79.9369 84.8426 78.7314 85.7358 77.3193 86.3469C74.9465 87.3738 72.4747 87.7268 69.9205 87.6909L69.9219 87.6906ZM70.405 79.9689C67.0257 79.8621 64.7716 78.1149 63.3067 75.4305C61.3085 71.7689 61.406 67.9968 63.2949 64.2818C63.4978 63.8827 63.6591 63.4248 63.2633 63.1894C62.8359 62.9351 62.7708 63.4692 62.5853 63.7386C62.2782 64.184 61.9026 64.5814 61.5736 65.0128C59.3582 67.9158 58.7403 71.1565 59.6464 74.6677C60.9272 79.63 65.9798 82.1797 70.405 79.9696V79.9689Z" fill="#3B9C79"/>
<path d="M94.221 55.7231C94.7489 55.4812 94.9857 55.7846 95.2545 55.9949C103.532 62.4632 107.951 70.9806 109.103 81.386C109.363 83.7364 108.537 84.8631 106.692 85.837C105.001 86.7306 103.24 87.438 101.478 88.1609C100.613 88.516 100.57 88.1972 100.695 87.4646C102.139 79.0452 101.183 70.8587 98.1534 62.9116C97.1851 60.3717 95.9947 57.914 94.2207 55.7231H94.221Z" fill="#3B9C79"/>
</g>
<defs>
<clipPath id="clip0_712_17579">
<rect width="120" height="146.698" fill="white"/>
</clipPath>
</defs>
</svg>
