<svg width="32" height="33" viewBox="0 0 32 33" fill="none" xmlns="http://www.w3.org/2000/svg">
<path d="M30.9946 12.2049C29.8093 11.2103 28.0357 11.3659 27.0429 12.549L24.3744 15.7067V6.55023C24.3744 5.78279 24.0553 5.03961 23.4989 4.51117L19.9378 1.12836C19.4129 0.629668 18.725 0.35498 18.0009 0.35498H2.81244C1.26169 0.35498 0 1.61667 0 3.16742V29.5419C0 31.0926 1.26169 32.3543 2.81244 32.3543H21.5621C23.1128 32.3543 24.3745 31.0926 24.3745 29.5419V24.4193L31.3412 16.1672C32.3404 14.9764 32.1856 13.2042 30.9946 12.2049ZM18.7496 2.58561C22.5004 6.14861 22.2341 5.88817 22.3044 5.97992H18.7496V2.58561ZM22.4995 29.5419C22.4995 30.0588 22.0789 30.4794 21.562 30.4794H2.81244C2.2955 30.4794 1.87494 30.0588 1.87494 29.5419V3.16742C1.87494 2.65048 2.2955 2.22992 2.81244 2.22992H16.8746V6.91729C16.8746 7.43504 17.2944 7.85479 17.8121 7.85479H22.4995V17.9254L18.5139 22.6416C18.2337 22.9764 18.0348 23.3715 17.9329 23.796L17.0616 27.4432C17.0211 27.6126 17.0286 27.7898 17.0832 27.9552C17.1378 28.1205 17.2374 28.2674 17.3708 28.3793C17.5042 28.4912 17.6661 28.5638 17.8384 28.5888C18.0107 28.6139 18.1866 28.5905 18.3463 28.5212L21.7869 27.0299C22.0454 26.9172 22.2856 26.7666 22.4995 26.5829V29.5419ZM20.2697 23.4689L21.7058 24.6739L21.3864 25.0521C21.2928 25.1635 21.1747 25.2516 21.0413 25.3096L19.321 26.0553L19.7567 24.2317C19.7903 24.0912 19.8558 23.9604 19.9482 23.8494L20.2697 23.4689ZM22.9153 23.2412L21.4798 22.0367L26.6617 15.9049L28.0941 17.1068L22.9153 23.2412ZM29.9068 14.9598L29.3037 15.6742L27.872 14.4728L28.4771 13.7567C28.8077 13.3628 29.3965 13.3114 29.7894 13.6412C30.1902 13.9774 30.2344 14.5694 29.9068 14.9598Z" fill="#212121"/>
<path d="M14.0623 5.97998H4.6875C4.16975 5.97998 3.75 6.39973 3.75 6.91748C3.75 7.43523 4.16975 7.85498 4.6875 7.85498H14.0623C14.5801 7.85498 14.9998 7.43523 14.9998 6.91748C14.9998 6.39973 14.5801 5.97998 14.0623 5.97998ZM19.6872 11.6674H4.6875C4.16975 11.6674 3.75 12.0871 3.75 12.6049C3.75 13.1226 4.16975 13.5424 4.6875 13.5424H19.6872C20.2049 13.5424 20.6247 13.1226 20.6247 12.6049C20.6247 12.0871 20.2049 11.6674 19.6872 11.6674ZM19.6872 17.2923H4.6875C4.16975 17.2923 3.75 17.712 3.75 18.2298C3.75 18.7475 4.16975 19.1673 4.6875 19.1673H19.6872C20.2049 19.1673 20.6247 18.7475 20.6247 18.2298C20.6247 17.712 20.2049 17.2923 19.6872 17.2923ZM14.0623 22.9172H4.6875C4.16975 22.9172 3.75 23.3369 3.75 23.8547C3.75 24.3724 4.16975 24.7922 4.6875 24.7922H14.0623C14.5801 24.7922 14.9998 24.3724 14.9998 23.8547C14.9998 23.3369 14.5801 22.9172 14.0623 22.9172Z" fill="#212121"/>
</svg>
