<svg width="40" height="41" viewBox="0 0 40 41" fill="none" xmlns="http://www.w3.org/2000/svg">
<path d="M38.7433 15.0429C37.2616 13.7996 35.0446 13.9941 33.8036 15.473L30.468 19.4202V7.97453C30.468 7.01524 30.0691 6.08625 29.3737 5.4257L24.9223 1.19719C24.2661 0.573828 23.4063 0.230469 22.5012 0.230469H3.51555C1.57711 0.230469 0 1.80758 0 3.74602V36.7141C0 38.6525 1.57711 40.2296 3.51555 40.2296H26.9526C28.891 40.2296 30.4681 38.6525 30.4681 36.7141V30.3109L39.1766 19.9957C40.4256 18.5073 40.232 16.292 38.7433 15.0429ZM23.437 3.01875C28.1255 7.4725 27.7926 7.14695 27.8805 7.26164H23.437V3.01875ZM28.1244 36.7141C28.1244 37.3602 27.5987 37.8859 26.9525 37.8859H3.51555C2.86938 37.8859 2.34367 37.3602 2.34367 36.7141V3.74602C2.34367 3.09984 2.86938 2.57414 3.51555 2.57414H21.0933V8.43336C21.0933 9.08055 21.618 9.60524 22.2652 9.60524H28.1244V22.1934L23.1423 28.0888C22.7921 28.5072 22.5435 29.0011 22.4161 29.5317L21.327 34.0908C21.2764 34.3025 21.2858 34.5241 21.3541 34.7307C21.4223 34.9374 21.5468 35.1209 21.7135 35.2608C21.8802 35.4007 22.0826 35.4915 22.298 35.5228C22.5134 35.5541 22.7332 35.5249 22.9329 35.4383L27.2337 33.5741C27.5568 33.4333 27.857 33.245 28.1244 33.0154V36.7141ZM25.3371 29.1228L27.1323 30.6291L26.7331 31.1019C26.616 31.2411 26.4683 31.3513 26.3016 31.4238L24.1513 32.3559L24.6959 30.0763C24.7378 29.9008 24.8198 29.7373 24.9352 29.5985L25.3371 29.1228ZM28.6441 28.8382L26.8498 27.3327L33.3271 19.6678L35.1177 21.1702L28.6441 28.8382ZM37.3835 18.4865L36.6297 19.3795L34.84 17.8777L35.5964 16.9827C36.0096 16.4902 36.7456 16.426 37.2368 16.8382C37.7377 17.2584 37.793 17.9985 37.3835 18.4865Z" fill="#707070"/>
<path d="M17.5779 7.26172H5.85938C5.21219 7.26172 4.6875 7.78641 4.6875 8.43359C4.6875 9.08078 5.21219 9.60547 5.85938 9.60547H17.5779C18.2251 9.60547 18.7498 9.08078 18.7498 8.43359C18.7498 7.78641 18.2251 7.26172 17.5779 7.26172ZM24.609 14.3709H5.85938C5.21219 14.3709 4.6875 14.8956 4.6875 15.5428C4.6875 16.19 5.21219 16.7147 5.85938 16.7147H24.609C25.2562 16.7147 25.7809 16.19 25.7809 15.5428C25.7809 14.8956 25.2562 14.3709 24.609 14.3709ZM24.609 21.4021H5.85938C5.21219 21.4021 4.6875 21.9268 4.6875 22.574C4.6875 23.2212 5.21219 23.7459 5.85938 23.7459H24.609C25.2562 23.7459 25.7809 23.2212 25.7809 22.574C25.7809 21.9267 25.2562 21.4021 24.609 21.4021ZM17.5779 28.4332H5.85938C5.21219 28.4332 4.6875 28.9579 4.6875 29.6051C4.6875 30.2523 5.21219 30.777 5.85938 30.777H17.5779C18.2251 30.777 18.7498 30.2523 18.7498 29.6051C18.7498 28.9579 18.2251 28.4332 17.5779 28.4332Z" fill="#707070"/>
</svg>
