<svg width="18" height="25" viewBox="0 0 18 25" fill="none" xmlns="http://www.w3.org/2000/svg">
<path d="M4.365 6.97H5.11647M5.82097 6.97H6.57244M3.2378 23.1266H1.73487C1.31982 23.1266 0.983398 22.7901 0.983398 22.3751V5.09133M0.983398 5.09133L3.98927 2.08545M0.983398 5.09133H10.001M3.98927 2.08545H6.99514M3.98927 2.08545V0.58252H6.99514V2.08545M10.001 22.0933V22.3751C10.001 22.7901 9.66459 23.1266 9.24954 23.1266H3.9423M10.001 9.60013V17.3027M6.99514 2.08545L10.001 5.09133M10.001 5.09133V8.89563M0.983398 14.1089H10.001" stroke="#3B9C79" stroke-width="0.704501" stroke-miterlimit="10"/>
<path d="M5.4922 11.103C5.4922 9.44159 4.14778 8.09717 2.48633 8.09717C2.48633 9.75862 3.83076 11.103 5.4922 11.103ZM5.4922 11.103C5.4922 9.44159 6.83663 8.09717 8.49808 8.09717C8.49808 9.75862 7.15365 11.103 5.4922 11.103ZM5.4922 11.103V12.606M0.983398 16.3633H10.001M0.983398 18.6177H9.24954M0.983398 20.8721H9.24954M13.3826 17.3026C13.3826 17.5437 13.3124 17.7794 13.1805 17.9812C12.7705 18.6086 11.8797 19.5571 11.8797 20.6843C11.8797 21.5143 12.5526 22.1872 13.3826 22.1872C14.2127 22.1872 14.8856 21.5143 14.8856 20.6843C14.8856 19.5571 13.9948 18.6086 13.5848 17.9812C13.4529 17.7794 13.3826 17.5437 13.3826 17.3026Z" stroke="#3B9C79" stroke-width="0.704501" stroke-miterlimit="10"/>
<path d="M13.3831 23.878C15.6657 23.878 17.5161 22.0275 17.5161 19.7449C17.5161 17.4623 15.6657 15.6118 13.3831 15.6118C11.1004 15.6118 9.25 17.4623 9.25 19.7449C9.25 22.0275 11.1004 23.878 13.3831 23.878Z" stroke="#3B9C79" stroke-width="0.704501" stroke-miterlimit="10"/>
</svg>
 