<svg width="24" height="25" viewBox="0 0 24 25" fill="none" xmlns="http://www.w3.org/2000/svg">
<path fill-rule="evenodd" clip-rule="evenodd" d="M10.4041 22.7592C4.66502 22.7592 0 18.0936 0 12.355C0 6.6165 4.66502 1.95093 10.4041 1.95093C13.0356 1.95093 15.5054 2.90652 17.4293 4.67044C16.7881 5.05065 16.1699 5.46846 15.5779 5.92168C14.1133 4.73881 12.2868 4.09498 10.4041 4.09797C5.85591 4.09797 2.14704 7.80684 2.14704 12.355C2.14704 16.9032 5.85591 20.6116 10.4041 20.6116C16.7323 20.6116 20.4893 13.8471 17.7676 8.58804C18.303 8.08998 18.8575 7.61275 19.4297 7.15741C20.3404 8.72977 20.8082 10.5131 20.8082 12.3545C20.8082 18.0936 16.1432 22.7592 10.4041 22.7592Z" fill="#3B9C79"/>
<path fill-rule="evenodd" clip-rule="evenodd" d="M10.6775 17.7033C10.6225 17.7024 10.569 17.6853 10.5238 17.6541C10.4785 17.6228 10.4436 17.5789 10.4233 17.5278C10.404 17.489 8.7253 13.1551 6.12925 11.5152C5.62156 11.2029 5.23124 10.8713 5.38736 10.1294C5.54349 9.40744 6.03126 8.99718 6.90989 8.8023C8.47117 8.47011 10.1504 10.8907 10.7743 11.8861C12.9612 8.70486 17.3334 3.70765 23.697 3.12189C24.0037 3.08591 24.1178 3.541 23.8337 3.66834C23.7363 3.7071 14.6399 7.86498 10.9504 17.5471C10.9228 17.595 10.883 17.6347 10.8351 17.6621C10.7871 17.6896 10.7327 17.7038 10.6775 17.7033Z" fill="#3B9C79"/>
</svg>
