<svg width="40" height="41" viewBox="0 0 40 41" fill="none" xmlns="http://www.w3.org/2000/svg">
<path d="M38.31 19.0087L34.5462 17.8399C34.2855 17.3129 33.9787 16.8099 33.6294 16.3368C38.1706 13.2099 36.2262 8.17616 36.205 8.12366C36.1478 7.98151 36.0404 7.86528 35.9032 7.79697C35.766 7.72867 35.6086 7.71304 35.4606 7.75304C30.8019 9.02491 29.0919 11.1368 28.4681 12.603C28.0939 12.4847 27.7131 12.3887 27.3275 12.3155C27.5478 11.3968 27.557 10.4401 27.3544 9.51726C27.1517 8.59446 26.7425 7.72961 26.1574 6.98775C25.5724 6.24589 24.8268 5.64632 23.9766 5.23412C23.1265 4.82191 22.194 4.60781 21.2492 4.60791C20.3044 4.60801 19.3719 4.8223 18.5219 5.23468C17.6719 5.64705 16.9264 6.24678 16.3415 6.98876C15.7566 7.73074 15.3475 8.59567 15.1451 9.51852C14.9426 10.4414 14.952 11.3981 15.1725 12.3168C12.9744 12.7552 10.9791 13.8979 9.48873 15.572C7.99837 17.2461 7.09418 19.3602 6.91313 21.5943C6.69312 21.6387 6.4825 21.6755 6.29313 21.698C6.37567 21.412 6.40022 21.1123 6.36533 20.8166C6.33045 20.5209 6.23684 20.2352 6.09 19.9762C5.91895 19.6723 5.66972 19.4197 5.36816 19.2447C5.0666 19.0696 4.72369 18.9784 4.375 18.9805C4.03983 18.9723 3.7095 19.0617 3.42428 19.2379C3.13907 19.4142 2.9113 19.6696 2.76875 19.973C2.61813 20.3007 2.56457 20.6646 2.61441 21.0217C2.66426 21.3788 2.81543 21.7142 3.05 21.988C3.22107 22.194 3.42585 22.3694 3.65562 22.5068C3.07568 22.6653 2.47614 22.7407 1.875 22.7305C1.70924 22.7305 1.55027 22.7964 1.43306 22.9136C1.31585 23.0308 1.25 23.1898 1.25 23.3555C1.25 23.5213 1.31585 23.6803 1.43306 23.7975C1.55027 23.9147 1.70924 23.9805 1.875 23.9805C3.72062 23.9805 4.8 23.4974 5.425 22.9824C5.91591 22.9956 6.40686 22.9579 6.89 22.8699C6.96286 24.5858 7.46345 26.2562 8.34625 27.7293C9.19719 29.1353 10.3687 30.3201 11.765 31.1868L10.6494 35.0574C10.6225 35.1505 10.6177 35.2485 10.6353 35.3438C10.6528 35.4391 10.6923 35.5289 10.7505 35.6063C10.8088 35.6838 10.8842 35.7466 10.9709 35.7898C11.0576 35.833 11.1531 35.8556 11.25 35.8555H16.25C16.3749 35.8556 16.497 35.8182 16.6004 35.7482C16.7039 35.6783 16.7841 35.5789 16.8306 35.463L17.9231 32.7305H23.9519L25.0444 35.463C25.0909 35.5789 25.1711 35.6783 25.2746 35.7482C25.378 35.8182 25.5001 35.8556 25.625 35.8555H30.625C30.7229 35.8555 30.8194 35.8325 30.9068 35.7883C30.9942 35.7442 31.07 35.6801 31.128 35.6013C31.1861 35.5225 31.2249 35.4311 31.2412 35.3346C31.2575 35.2381 31.2509 35.1391 31.2219 35.0455L30.1294 31.5268C32.2456 30.3954 33.9075 28.5697 34.8356 26.3568L38.3219 25.1987C38.4465 25.1573 38.5549 25.0777 38.6318 24.9713C38.7086 24.8648 38.75 24.7368 38.75 24.6055V19.6055C38.75 19.4721 38.7073 19.3422 38.6281 19.2348C38.5489 19.1274 38.4374 19.0482 38.31 19.0087ZM4.98125 21.6168C4.97062 21.6355 4.95937 21.6543 4.9475 21.6718C4.5919 21.6243 4.26339 21.4562 4.01688 21.1955C3.93353 21.1041 3.87816 20.9907 3.85733 20.8687C3.83651 20.7467 3.8511 20.6213 3.89937 20.5074C3.94424 20.4165 4.01565 20.3414 4.10415 20.2919C4.19265 20.2425 4.29407 20.2211 4.395 20.2305C4.52068 20.2326 4.64419 20.2679 4.7517 20.3331C4.85921 20.3982 4.94749 20.4907 5.0075 20.6012C5.09349 20.7576 5.13638 20.9341 5.13177 21.1125C5.12715 21.291 5.07521 21.465 4.98125 21.6168ZM21.25 5.85554C22.3589 5.85518 23.4364 6.22365 24.3129 6.90292C25.1894 7.58219 25.8151 8.53368 26.0914 9.60759C26.3678 10.6815 26.2791 11.8168 25.8394 12.8348C25.3996 13.8528 24.6338 14.6956 23.6625 15.2305H18.8375C17.8662 14.6956 17.1004 13.8528 16.6606 12.8348C16.2209 11.8168 16.1322 10.6815 16.4086 9.60759C16.6849 8.53368 17.3106 7.58219 18.1871 6.90292C19.0636 6.22365 20.1411 5.85518 21.25 5.85554ZM37.5 24.1543L34.1656 25.2624C34.0775 25.2916 33.997 25.3401 33.93 25.4043C33.863 25.4685 33.8111 25.5469 33.7781 25.6337C32.9269 27.842 31.2546 29.6356 29.1112 30.6393C28.9743 30.7031 28.8651 30.8144 28.8039 30.9525C28.7426 31.0906 28.7335 31.2462 28.7781 31.3905L29.7762 34.6055H26.0481L24.9556 31.873C24.9091 31.7571 24.8289 31.6578 24.7254 31.5879C24.622 31.5179 24.4999 31.4805 24.375 31.4805H17.5C17.3751 31.4805 17.253 31.5179 17.1496 31.5879C17.0461 31.6578 16.9659 31.7571 16.9194 31.873L15.8269 34.6055H12.0806L13.1006 31.0662C13.1399 30.9302 13.1318 30.7849 13.0778 30.6541C13.0237 30.5233 12.9269 30.4148 12.8031 30.3462C11.4097 29.5719 10.2424 28.4474 9.41687 27.0837C8.66098 25.8251 8.22254 24.4016 8.13936 22.9359C8.05618 21.4701 8.33076 20.0062 8.93942 18.6702C9.54808 17.3342 10.4726 16.1663 11.6331 15.2672C12.7937 14.3681 14.1556 13.7648 15.6012 13.5093C15.6294 13.5687 15.6512 13.6318 15.6812 13.6905C15.9736 14.2575 16.3504 14.7768 16.7987 15.2305H15.625C15.4592 15.2305 15.3003 15.2964 15.1831 15.4136C15.0658 15.5308 15 15.6898 15 15.8555C15 16.0213 15.0658 16.1803 15.1831 16.2975C15.3003 16.4147 15.4592 16.4805 15.625 16.4805H26.875C27.0408 16.4805 27.1997 16.4147 27.3169 16.2975C27.4342 16.1803 27.5 16.0213 27.5 15.8555C27.5 15.6898 27.4342 15.5308 27.3169 15.4136C27.1997 15.2964 27.0408 15.2305 26.875 15.2305H25.7013C26.1493 14.7774 26.5259 14.2588 26.8181 13.6924C26.8475 13.6349 26.8681 13.5737 26.8956 13.5162C27.4841 13.6121 28.061 13.7692 28.6169 13.9849C28.699 14.018 28.7872 14.0333 28.8756 14.0297C28.9641 14.0261 29.0508 14.0038 29.13 13.9642C29.2091 13.9246 29.279 13.8687 29.3349 13.8C29.3909 13.7314 29.4316 13.6517 29.4544 13.5662C29.6931 12.6705 30.7306 10.4974 35.2131 9.12491C35.5739 10.3693 35.4897 11.7006 34.975 12.8897C34.4603 14.0787 33.5473 15.0512 32.3931 15.6399C32.3137 15.6859 32.2455 15.7488 32.1931 15.8241C32.1408 15.8995 32.1057 15.9854 32.0903 16.0758C32.0749 16.1663 32.0796 16.259 32.1041 16.3474C32.1286 16.4358 32.1722 16.5178 32.2319 16.5874C32.7569 17.2005 33.1944 17.8835 33.5319 18.6168C33.5686 18.6965 33.6217 18.7676 33.6877 18.8254C33.7537 18.8832 33.8312 18.9265 33.915 18.9524L37.5 20.0655V24.1543Z" fill="#707070"/>
<path d="M29.375 18.3555C28.8779 18.356 28.4012 18.5537 28.0497 18.9052C27.6982 19.2567 27.5005 19.7333 27.5 20.2305C27.5 20.3962 27.5658 20.5552 27.6831 20.6724C27.8003 20.7896 27.9592 20.8555 28.125 20.8555C28.2908 20.8555 28.4497 20.7896 28.5669 20.6724C28.6842 20.5552 28.75 20.3962 28.75 20.2305C28.75 20.0647 28.8158 19.9057 28.9331 19.7885C29.0503 19.6713 29.2092 19.6055 29.375 19.6055C29.5408 19.6055 29.6997 19.6713 29.8169 19.7885C29.9342 19.9057 30 20.0647 30 20.2305C30 20.3962 30.0658 20.5552 30.1831 20.6724C30.3003 20.7896 30.4592 20.8555 30.625 20.8555C30.7908 20.8555 30.9497 20.7896 31.0669 20.6724C31.1842 20.5552 31.25 20.3962 31.25 20.2305C31.2495 19.7333 31.0518 19.2567 30.7003 18.9052C30.3488 18.5537 29.8721 18.356 29.375 18.3555ZM20.625 13.8898V13.9805C20.625 14.1462 20.6908 14.3052 20.8081 14.4224C20.9253 14.5396 21.0842 14.6055 21.25 14.6055C21.4158 14.6055 21.5747 14.5396 21.6919 14.4224C21.8092 14.3052 21.875 14.1462 21.875 13.9805V13.8898C22.2139 13.7844 22.5135 13.58 22.7352 13.3028C22.9569 13.0256 23.0905 12.6884 23.1189 12.3346C23.1473 11.9809 23.0691 11.6267 22.8944 11.3177C22.7197 11.0088 22.4565 10.7592 22.1388 10.6011L20.92 9.99234C20.8121 9.93878 20.7254 9.85027 20.6742 9.7412C20.6229 9.63213 20.6101 9.50893 20.6378 9.39164C20.6654 9.27436 20.732 9.16989 20.8266 9.09523C20.9212 9.02058 21.0382 8.98013 21.1588 8.98047H21.3413C21.4828 8.98063 21.6184 9.03692 21.7185 9.13698C21.8185 9.23705 21.8748 9.37271 21.875 9.51422V9.60547C21.875 9.77123 21.9408 9.9302 22.0581 10.0474C22.1753 10.1646 22.3342 10.2305 22.5 10.2305C22.6658 10.2305 22.8247 10.1646 22.9419 10.0474C23.0592 9.9302 23.125 9.77123 23.125 9.60547V9.51422C23.1237 9.13577 23.0018 8.7676 22.777 8.46313C22.5522 8.15867 22.2363 7.93378 21.875 7.82109V7.73047C21.875 7.56471 21.8092 7.40574 21.6919 7.28853C21.5747 7.17132 21.4158 7.10547 21.25 7.10547C21.0842 7.10547 20.9253 7.17132 20.8081 7.28853C20.6908 7.40574 20.625 7.56471 20.625 7.73047V7.82109C20.2861 7.92651 19.9865 8.13097 19.7648 8.40814C19.5431 8.68531 19.4095 9.0225 19.3811 9.37629C19.3527 9.73008 19.4309 10.0843 19.6056 10.3932C19.7803 10.7022 20.0435 10.9518 20.3612 11.1098L21.58 11.7186C21.6879 11.7722 21.7746 11.8607 21.8258 11.9697C21.8771 12.0788 21.8899 12.202 21.8622 12.3193C21.8346 12.4366 21.768 12.541 21.6734 12.6157C21.5788 12.6904 21.4618 12.7308 21.3413 12.7305H21.1588C21.0172 12.7303 20.8816 12.674 20.7815 12.574C20.6815 12.4739 20.6252 12.3382 20.625 12.1967V12.1055C20.625 11.9397 20.5592 11.7807 20.4419 11.6635C20.3247 11.5463 20.1658 11.4805 20 11.4805C19.8342 11.4805 19.6753 11.5463 19.5581 11.6635C19.4408 11.7807 19.375 11.9397 19.375 12.1055V12.1967C19.3763 12.5752 19.4982 12.9433 19.723 13.2478C19.9478 13.5523 20.2637 13.7772 20.625 13.8898Z" fill="#707070"/>
</svg>
