<svg width="47" height="48" viewBox="0 0 47 48" fill="none" xmlns="http://www.w3.org/2000/svg">
<path d="M23.5014 47.219C36.3056 47.219 46.75 36.7878 46.75 23.997C46.75 11.2062 36.3056 0.777832 23.5014 0.777832C10.6972 0.777832 0.25 11.209 0.25 23.997C0.25 36.785 10.6944 47.219 23.5014 47.219Z" fill="#FB8500"/>
<path d="M23.5014 0.777832C10.6944 0.777832 0.25 11.209 0.25 23.997C0.25 36.785 10.6944 47.219 23.5014 47.219C36.3084 47.219 46.75 36.7878 46.75 23.997C46.75 11.2062 36.3055 0.777832 23.5014 0.777832ZM23.5014 41.7244C13.7244 41.7244 5.75144 33.7615 5.75144 23.9969C5.75144 14.2323 13.7244 6.26943 23.5014 6.26943C33.2784 6.26943 41.2514 14.2351 41.2514 23.9969C41.2514 33.7587 33.2756 41.7244 23.5014 41.7244Z" fill="#FFB703"/>
<path d="M35.1482 20.1398C35.1166 20.0423 35.0589 19.9554 34.9815 19.8883C34.904 19.8212 34.8097 19.7766 34.7087 19.7591L27.4387 18.5064L23.999 11.9877C23.9512 11.8972 23.8797 11.8214 23.792 11.7685C23.7043 11.7157 23.6039 11.6878 23.5015 11.6878C23.3991 11.6878 23.2987 11.7157 23.211 11.7685C23.1233 11.8214 23.0518 11.8972 23.004 11.9877L19.5642 18.5064L12.2942 19.7591C12.1932 19.7765 12.0989 19.8212 12.0214 19.8882C11.944 19.9553 11.8863 20.0423 11.8546 20.1397C11.823 20.2372 11.8186 20.3414 11.8418 20.4412C11.8651 20.541 11.9152 20.6325 11.9867 20.7059L17.1301 25.988L16.0776 33.2805C16.063 33.3819 16.0762 33.4853 16.1161 33.5797C16.1559 33.674 16.2207 33.7557 16.3036 33.8159C16.3864 33.8761 16.4841 33.9126 16.5862 33.9213C16.6882 33.93 16.7907 33.9107 16.8826 33.8655L23.5014 30.61L30.1202 33.8655C30.212 33.9107 30.3145 33.93 30.4166 33.9212C30.5186 33.9124 30.6163 33.876 30.6992 33.8158C30.782 33.7556 30.8468 33.6739 30.8867 33.5795C30.9265 33.4852 30.9398 33.3818 30.9252 33.2804L29.8728 25.9879L35.0162 20.7058C35.0876 20.6324 35.1377 20.5409 35.161 20.4411C35.1842 20.3413 35.1798 20.2371 35.1482 20.1397L35.1482 20.1398ZM7.07434 7.58878L10.9607 11.4701C14.176 8.25882 18.6132 6.26757 23.5015 6.26757V0.775879C17.0987 0.775879 11.2862 3.38316 7.07434 7.58878ZM39.9285 40.4013L36.0422 36.5199C32.8264 39.7315 28.3887 41.7225 23.5013 41.7225V47.217C29.904 47.217 35.7167 44.6087 39.9284 40.4014L39.9285 40.4013ZM39.9272 7.59L36.0417 11.4707C39.2574 14.6823 41.2513 19.1141 41.2513 23.995H46.75C46.75 17.6011 44.1389 11.7963 39.9272 7.59ZM7.07303 40.4025L10.96 36.5204C7.74466 33.3091 5.75134 28.8773 5.75134 23.9949H0.25C0.25 30.3903 2.86113 36.1958 7.07303 40.4025Z" fill="#FCD227"/>
</svg>
