<svg width="33" height="33" viewBox="0 0 33 33" fill="none" xmlns="http://www.w3.org/2000/svg">
<path d="M25.7152 15.0233C25.8 15.0233 25.8814 14.9896 25.9414 14.9296C26.0014 14.8696 26.0352 14.7882 26.0352 14.7033V5.59012C26.0352 5.30127 25.8645 5.03972 25.6012 4.92367C24.4544 4.42106 20.5559 2.99428 17.6076 5.16602C14.6602 2.99428 10.7601 4.42063 9.61361 4.9241C9.4845 4.98121 9.37476 5.0746 9.29772 5.19292C9.22069 5.31123 9.17969 5.44937 9.17969 5.59055V14.9491C9.17969 15.0339 9.2134 15.1153 9.27341 15.1753C9.33342 15.2353 9.41482 15.2691 9.49969 15.2691C9.58456 15.2691 9.66595 15.2353 9.72596 15.1753C9.78597 15.1153 9.81969 15.0339 9.81969 14.9491C9.84102 5.01455 9.77275 5.55471 9.87089 5.50991C10.944 5.04015 14.6103 3.68548 17.2876 5.71428V11.8911C17.2876 11.976 17.3213 12.0574 17.3814 12.1174C17.4414 12.1774 17.5228 12.2111 17.6076 12.2111C17.6925 12.2111 17.7739 12.1774 17.8339 12.1174C17.8939 12.0574 17.9276 11.976 17.9276 11.8911V5.72282C20.6062 3.69018 24.2713 5.0393 25.3435 5.50948C25.3592 5.51617 25.3726 5.52745 25.3818 5.54183C25.391 5.55622 25.3957 5.57305 25.3952 5.59012V14.7037C25.3952 14.8799 25.5385 15.0237 25.7152 15.0237V15.0233Z" fill="#707070"/>
<path d="M24.4627 6.60909C21.9176 5.4733 19.2215 6.45805 19.108 6.50029C19.0672 6.51384 19.0295 6.53549 18.9972 6.56394C18.9649 6.59239 18.9387 6.62707 18.9202 6.66588C18.9016 6.7047 18.891 6.74687 18.8891 6.78986C18.8872 6.83285 18.894 6.87578 18.9091 6.91608C18.9241 6.95639 18.9472 6.99324 18.9768 7.02444C19.0065 7.05563 19.0421 7.08053 19.0816 7.09763C19.1211 7.11474 19.1636 7.12371 19.2066 7.124C19.2497 7.12429 19.2923 7.1159 19.332 7.09933C19.3576 7.09079 21.8933 6.16493 24.2016 7.19319C24.2402 7.21247 24.2823 7.22374 24.3254 7.22631C24.3685 7.22889 24.4117 7.22272 24.4523 7.20818C24.4929 7.19365 24.5302 7.17103 24.5619 7.14171C24.5936 7.11239 24.619 7.07696 24.6366 7.03756C24.6542 6.99816 24.6637 6.9556 24.6645 6.91245C24.6652 6.86929 24.6572 6.82643 24.641 6.78644C24.6247 6.74645 24.6006 6.71016 24.5699 6.67975C24.5393 6.64935 24.5028 6.62546 24.4627 6.60951V6.60909ZM24.4627 9.0189C21.9176 7.88354 19.2215 8.86743 19.108 8.90967C19.0682 8.924 19.0316 8.94611 19.0003 8.9747C18.9691 9.00329 18.9438 9.0378 18.926 9.07623C18.9082 9.11466 18.8982 9.15625 18.8965 9.19858C18.8949 9.24091 18.9017 9.28313 18.9165 9.32281C18.9314 9.36249 18.9539 9.39883 18.9829 9.42973C19.0119 9.46062 19.0467 9.48546 19.0854 9.50279C19.124 9.52012 19.1657 9.52961 19.2081 9.5307C19.2504 9.53179 19.2925 9.52446 19.332 9.50914C19.3576 9.49975 21.8933 8.57389 24.2016 9.60301C24.2401 9.62135 24.2819 9.6318 24.3245 9.63375C24.3672 9.6357 24.4097 9.62911 24.4498 9.61435C24.4898 9.5996 24.5265 9.57699 24.5577 9.54785C24.5889 9.51872 24.6139 9.48364 24.6313 9.44468C24.6487 9.40573 24.6582 9.36369 24.6591 9.32103C24.66 9.27837 24.6524 9.23596 24.6367 9.19628C24.621 9.15661 24.5975 9.12048 24.5676 9.09002C24.5377 9.05955 24.5021 9.03537 24.4627 9.0189ZM24.4627 11.4287C21.9176 10.2925 19.2215 11.2768 19.108 11.3195C19.0672 11.333 19.0295 11.3547 18.9972 11.3831C18.9649 11.4116 18.9387 11.4463 18.9202 11.4851C18.9016 11.5239 18.891 11.5661 18.8891 11.6091C18.8872 11.652 18.894 11.695 18.9091 11.7353C18.9241 11.7756 18.9472 11.8124 18.9768 11.8436C19.0065 11.8748 19.0421 11.8997 19.0816 11.9168C19.1211 11.9339 19.1636 11.9429 19.2066 11.9432C19.2497 11.9435 19.2923 11.9351 19.332 11.9185C19.3576 11.9091 21.8933 10.9841 24.2016 12.0124C24.2402 12.0317 24.2823 12.0429 24.3254 12.0455C24.3685 12.0481 24.4117 12.0419 24.4523 12.0274C24.4929 12.0128 24.5302 11.9902 24.5619 11.9609C24.5936 11.9316 24.619 11.8962 24.6366 11.8568C24.6542 11.8174 24.6637 11.7748 24.6645 11.7316C24.6652 11.6885 24.6572 11.6456 24.641 11.6056C24.6247 11.5656 24.6006 11.5294 24.5699 11.499C24.5393 11.4685 24.5028 11.4447 24.4627 11.4287ZM16.3522 6.50029C16.2383 6.45762 13.5405 5.4733 10.9975 6.60951C10.6835 6.74946 10.7833 7.22135 11.1277 7.22135C11.1725 7.22146 11.2169 7.212 11.2578 7.19362C13.5584 6.16663 16.103 7.09037 16.1282 7.09975C16.2071 7.12697 16.2936 7.12226 16.3691 7.08663C16.4446 7.051 16.5032 6.98728 16.5323 6.90905C16.5615 6.83083 16.559 6.7443 16.5252 6.66793C16.4915 6.59156 16.4297 6.5314 16.3522 6.50029ZM16.3522 8.90967C16.2383 8.86701 13.5405 7.88269 10.9975 9.0189C10.6835 9.15927 10.7833 9.63117 11.1277 9.63117C11.1726 9.63114 11.2169 9.62154 11.2578 9.60301C13.5584 8.57645 16.103 9.49933 16.1282 9.50914C16.2071 9.53635 16.2936 9.53165 16.3691 9.49602C16.4446 9.46039 16.5032 9.39666 16.5323 9.31844C16.5615 9.24022 16.559 9.15369 16.5252 9.07732C16.4915 9.00095 16.4297 8.94079 16.3522 8.90967ZM16.3522 11.3195C16.2383 11.2768 13.5405 10.2925 10.9975 11.4287C10.9235 11.4654 10.8665 11.5293 10.8385 11.607C10.8105 11.6847 10.8137 11.7702 10.8473 11.8457C10.8809 11.9212 10.9424 11.9807 11.0189 12.0118C11.0954 12.043 11.181 12.0433 11.2578 12.0128C13.5584 10.9858 16.103 11.9091 16.1282 11.919C16.2071 11.9462 16.2936 11.9415 16.3691 11.9058C16.4446 11.8702 16.5032 11.8065 16.5323 11.7283C16.5615 11.65 16.559 11.5635 16.5252 11.4871C16.4915 11.4108 16.4297 11.3506 16.3522 11.3195ZM11.0206 16.2633C10.5922 16.2633 10.1715 16.2701 9.76062 16.2846C9.67578 16.2876 9.59559 16.3242 9.53767 16.3862C9.47975 16.4483 9.44884 16.5308 9.45172 16.6157C9.45812 16.7923 9.61598 16.9259 9.78281 16.9242C10.1864 16.9101 10.5995 16.9028 11.0201 16.9028C16.1768 16.9028 18.8738 17.9055 18.8738 18.4423C18.8738 18.979 16.1768 19.9812 11.0206 19.9812C5.86431 19.9812 3.16734 18.9794 3.16734 18.4423C3.16734 18.1769 4.02836 17.6158 6.33918 17.242C6.42089 17.2263 6.49325 17.1793 6.5409 17.1111C6.58856 17.0429 6.60776 16.9588 6.59444 16.8766C6.58112 16.7945 6.53632 16.7207 6.46955 16.6711C6.40278 16.6214 6.31929 16.5997 6.23678 16.6106C5.05236 16.8017 2.40617 17.3244 2.53502 18.5216C2.53332 18.5348 2.52734 18.5468 2.52734 18.5604C2.52734 22.0339 4.62526 25.0232 7.61876 26.3377C7.55476 26.4679 7.51124 26.6048 7.51124 26.7524C7.51124 27.7278 9.02078 28.4634 11.0227 28.4634C13.0212 28.4634 14.5286 27.7278 14.5286 26.7524C14.5286 26.6048 14.486 26.4683 14.422 26.3382C17.3617 25.0475 19.5138 22.1329 19.5138 18.4423C19.5138 16.8435 14.4348 16.2633 11.0206 16.2633ZM13.8297 26.5694C13.8683 26.6226 13.8889 26.6867 13.8886 26.7524C13.8886 27.1996 12.7985 27.8234 11.0227 27.8234C9.2435 27.8234 8.15124 27.1996 8.15124 26.7524C8.15124 26.6522 8.19006 26.6095 8.21182 26.5664C10.0572 27.2162 11.9827 27.2162 13.8285 26.5668L13.8297 26.5694ZM11.0206 26.4141C6.96084 26.4141 3.61065 23.3178 3.20788 19.3626C5.94964 21.0249 16.0723 21.036 18.8333 19.3626C18.4305 23.3178 15.0803 26.4141 11.0206 26.4141Z" fill="#707070"/>
<path d="M5.57417 17.7899C5.01012 17.7737 4.5011 18.071 4.301 18.5207C4.26963 18.5977 4.26945 18.6839 4.30051 18.761C4.33156 18.8381 4.3914 18.9001 4.46736 18.9339C4.54332 18.9677 4.62944 18.9705 4.70749 18.9419C4.78554 18.9133 4.84939 18.8555 4.88553 18.7806C4.99433 18.5361 5.3011 18.438 5.5682 18.4299C5.90526 18.4333 6.24873 18.5766 6.5811 18.7157C7.7395 19.2021 8.20371 19.1979 9.4867 18.4926C10.6046 17.8773 10.8648 17.891 11.8419 18.3044C12.8092 18.7127 13.1441 18.7507 14.1246 18.4555C14.3136 18.3987 14.4915 18.345 14.6694 18.3147C15.5394 18.1611 16.4188 18.5361 17.3945 19.0029C17.4326 19.0219 17.474 19.0332 17.5164 19.0361C17.5588 19.039 17.6014 19.0333 17.6417 19.0195C17.6819 19.0058 17.719 18.9841 17.7507 18.9558C17.7825 18.9276 17.8083 18.8932 17.8266 18.8549C17.845 18.8165 17.8555 18.7749 17.8576 18.7324C17.8596 18.6899 17.8532 18.6475 17.8387 18.6075C17.8242 18.5675 17.8018 18.5309 17.773 18.4996C17.7441 18.4684 17.7093 18.4432 17.6706 18.4256C16.8399 18.0288 15.7007 17.4857 14.5593 17.6832C14.3439 17.7216 14.1382 17.783 13.9402 17.8428C13.1236 18.089 12.9342 18.071 12.0915 17.7148C11.0671 17.2817 10.564 17.1942 9.38345 17.8206L7.37641 10.426C7.34438 10.3074 7.28925 10.1963 7.21418 10.099C7.13912 10.0017 7.04559 9.92026 6.93896 9.85921C6.83233 9.79817 6.7147 9.75877 6.59281 9.74329C6.47093 9.7278 6.34718 9.73652 6.22868 9.76896C6.11013 9.801 5.99907 9.8561 5.90183 9.9311C5.8046 10.0061 5.7231 10.0995 5.662 10.206C5.60089 10.3125 5.56138 10.4301 5.54573 10.5519C5.53007 10.6736 5.53858 10.7973 5.57075 10.9158L7.59913 18.3881C6.93779 18.2652 6.36265 17.7975 5.57417 17.7899ZM6.39764 10.3863C6.43498 10.3762 6.47396 10.3735 6.51234 10.3785C6.55072 10.3834 6.58775 10.3958 6.62132 10.4151C6.65488 10.4344 6.68432 10.4601 6.70795 10.4907C6.73158 10.5213 6.74893 10.5563 6.75902 10.5937L8.80404 18.1274C8.62336 18.2184 8.43451 18.2923 8.23998 18.3479C8.23145 18.2507 6.69076 12.6059 6.18857 10.7486C6.17833 10.7111 6.17562 10.6719 6.1806 10.6333C6.18558 10.5948 6.19816 10.5576 6.21759 10.5239C6.23703 10.4902 6.26295 10.4607 6.29385 10.4371C6.32476 10.4135 6.36003 10.3962 6.39764 10.3863ZM9.51828 24.6319C8.24809 24.5551 6.96681 23.2661 6.95401 23.2529C6.89391 23.1957 6.81392 23.1641 6.73094 23.1647C6.64796 23.1653 6.56846 23.1982 6.50923 23.2563C6.45 23.3144 6.41567 23.3933 6.41347 23.4762C6.41128 23.5592 6.4414 23.6397 6.49748 23.7009C7.18014 24.3985 8.51518 25.271 9.4995 25.271C9.58201 25.27 9.66091 25.237 9.71973 25.1792C9.77855 25.1213 9.81274 25.0429 9.81516 24.9605C9.81759 24.878 9.78805 24.7978 9.73273 24.7365C9.67741 24.6753 9.60058 24.6378 9.51828 24.6319ZM30.221 20.0823C30.0008 19.817 29.249 19.1518 27.8526 16.9378C26.931 15.4948 25.0238 15.5328 23.536 16.4919L20.8266 14.2409C20.6762 14.1166 20.4827 14.0569 20.2884 14.0749C20.0941 14.0929 19.9149 14.1871 19.7898 14.3369L19.5125 14.6714C17.6548 13.1563 17.7495 13.1439 17.5968 13.158L15.4775 13.3542C15.3694 13.3642 15.2696 13.4166 15.2 13.5001C15.1304 13.5835 15.0967 13.6911 15.1063 13.7993L15.1268 14.0254C15.1469 14.2515 15.347 14.4179 15.5731 14.3966L17.2627 14.2409C17.2896 14.2383 17.3167 14.2411 17.3424 14.2491C17.3682 14.2571 17.3922 14.2701 17.4129 14.2874L18.8439 15.4761L18.6413 15.7201C18.3818 16.0316 18.4241 16.4966 18.7368 16.7569L21.4462 19.008C20.7925 20.6199 21.0698 22.4768 22.628 23.1492C25.3958 24.3162 25.8818 24.7514 26.2022 24.922C26.6255 25.1772 27.1575 25.0812 27.469 24.7074L30.2483 21.3615C30.3975 21.1803 30.4768 20.9516 30.4718 20.7169C30.4668 20.4822 30.3778 20.2571 30.221 20.0823ZM29.7559 20.9523L26.9766 24.2982C26.924 24.3622 26.85 24.405 26.7684 24.4188C26.6867 24.4326 26.6028 24.4165 26.532 24.3733C26.215 24.2048 25.7133 23.7568 22.8793 22.5604C21.5797 21.9985 21.5183 20.3593 22.1258 19.0498C22.1555 18.9857 22.1632 18.9136 22.1477 18.8447C22.1322 18.7758 22.0944 18.714 22.0401 18.6688L19.146 16.265C19.1263 16.2487 19.1139 16.2252 19.1115 16.1998C19.1091 16.1743 19.1169 16.149 19.1332 16.1293L20.2826 14.746C20.2989 14.7265 20.3223 14.7142 20.3476 14.7118C20.373 14.7094 20.3982 14.7171 20.4179 14.7332L23.3116 17.1379C23.3659 17.1833 23.4338 17.2093 23.5046 17.2118C23.5753 17.2144 23.6449 17.1933 23.7024 17.152C24.8569 16.3268 26.1617 16.2121 26.9506 16.8683C27.0888 16.9826 27.2109 17.1217 27.3116 17.2809C28.6684 19.4308 29.604 20.3401 29.7465 20.512C29.8579 20.6353 29.8617 20.8243 29.7559 20.9523Z" fill="#707070"/>
<path d="M25.5023 20.2513C24.739 21.1703 24.4578 22.1956 24.8747 22.5417C25.2911 22.8877 26.2477 22.4235 27.011 21.5049C27.7743 20.5862 28.0555 19.5605 27.6386 19.2145C27.2222 18.8685 26.2656 19.3327 25.5023 20.2513ZM26.0459 17.2224C26.0678 17.1404 26.0563 17.053 26.0139 16.9794C25.9715 16.9058 25.9017 16.8521 25.8198 16.8299C25.7378 16.8084 25.6507 16.82 25.5772 16.8623C25.5038 16.9045 25.4499 16.9739 25.4272 17.0556C25.1853 17.9546 24.515 18.182 23.8759 18.697C22.9189 19.4679 22.3625 20.7095 22.4235 21.9371C22.4249 21.9795 22.4348 22.0212 22.4525 22.0597C22.4702 22.0983 22.4954 22.1329 22.5267 22.1617C22.5579 22.1904 22.5945 22.2126 22.6344 22.227C22.6743 22.2415 22.7167 22.2478 22.7591 22.2457C22.8015 22.2437 22.843 22.2332 22.8813 22.2149C22.9196 22.1966 22.9539 22.1708 22.9821 22.1392C23.0103 22.1075 23.032 22.0705 23.0458 22.0304C23.0597 21.9903 23.0654 21.9478 23.0626 21.9055C23.0114 20.8789 23.4769 19.8404 24.2774 19.1953C24.8768 18.7127 25.7336 18.3778 26.0459 17.2224Z" fill="#707070"/>
</svg>
