<svg width="24" height="25" viewBox="0 0 24 25" fill="none" xmlns="http://www.w3.org/2000/svg">
<path d="M18.031 16.8473L22.3137 21.13L20.8995 22.5442L16.6168 18.2615C15.0769 19.4935 13.124 20.2305 11 20.2305C6.032 20.2305 2 16.1985 2 11.2305C2 6.26247 6.032 2.23047 11 2.23047C15.968 2.23047 20 6.26247 20 11.2305C20 13.3545 19.263 15.3074 18.031 16.8473ZM16.0247 16.1053C17.2475 14.8451 18 13.1261 18 11.2305C18 7.36297 14.8675 4.23047 11 4.23047C7.1325 4.23047 4 7.36297 4 11.2305C4 15.098 7.1325 18.2305 11 18.2305C12.8956 18.2305 14.6146 17.478 15.8748 16.2552L16.0247 16.1053Z" fill="#707070"/>
</svg>
