<svg width="25" height="25" viewBox="0 0 25 25" fill="none" xmlns="http://www.w3.org/2000/svg">
<path d="M16.7404 22.9805H7.75042C6.03042 22.9805 4.74043 22.5205 3.94043 21.6105C3.14043 20.7005 2.83042 19.3805 3.04042 17.6705L3.94043 10.1705C4.20043 7.96047 4.76043 5.98047 8.66043 5.98047H15.8604C19.7504 5.98047 20.3104 7.96047 20.5804 10.1705L21.4804 17.6705C21.6804 19.3805 21.3804 20.7105 20.5804 21.6105C19.7504 22.5205 18.4704 22.9805 16.7404 22.9805ZM8.65042 7.48047C5.77042 7.48047 5.63042 8.62045 5.42042 10.3405L4.52043 17.8405C4.37043 19.1105 4.55042 20.0405 5.06042 20.6105C5.57042 21.1805 6.47042 21.4705 7.75042 21.4705H16.7404C18.0204 21.4705 18.9204 21.1805 19.4304 20.6105C19.9404 20.0405 20.1204 19.1105 19.9704 17.8405L19.0704 10.3405C18.8604 8.61045 18.7304 7.48047 15.8404 7.48047H8.65042Z" fill="#707070"/>
<path d="M16.25 8.98047C15.84 8.98047 15.5 8.64047 15.5 8.23047V4.73047C15.5 3.65047 14.83 2.98047 13.75 2.98047H10.75C9.67 2.98047 9 3.65047 9 4.73047V8.23047C9 8.64047 8.66 8.98047 8.25 8.98047C7.84 8.98047 7.5 8.64047 7.5 8.23047V4.73047C7.5 2.82047 8.84 1.48047 10.75 1.48047H13.75C15.66 1.48047 17 2.82047 17 4.73047V8.23047C17 8.64047 16.66 8.98047 16.25 8.98047Z" fill="#707070"/>
<path d="M20.66 18.0107H8.25C7.84 18.0107 7.5 17.6707 7.5 17.2607C7.5 16.8507 7.84 16.5107 8.25 16.5107H20.66C21.07 16.5107 21.41 16.8507 21.41 17.2607C21.41 17.6707 21.07 18.0107 20.66 18.0107Z" fill="#707070"/>
</svg>
