<svg width="186" height="181" viewBox="0 0 186 181" fill="none" xmlns="http://www.w3.org/2000/svg">
<circle cx="95.5" cy="91" r="70.5" fill="#3B9C79"/>
<circle cx="178.467" cy="28" r="7.5" fill="#95CFBA"/>
<circle cx="20.0332" cy="10.5" r="10" fill="#95CFBA"/>
<circle cx="10.0332" cy="133.5" r="5" fill="#95CFBA"/>
<circle cx="165.533" cy="161" r="2.5" fill="#95CFBA"/>
<path fill-rule="evenodd" clip-rule="evenodd" d="M84.8548 66.416H106.169C114.502 66.416 120.083 72.2668 120.083 80.9693V101.056C120.083 109.732 114.502 115.583 106.169 115.583H84.8548C76.521 115.583 70.916 109.732 70.916 101.056V80.9693C70.916 72.2668 76.521 66.416 84.8548 66.416ZM94.098 98.3498L105.775 86.6727C106.611 85.8368 106.611 84.4848 105.775 83.6243C104.939 82.7885 103.563 82.7885 102.727 83.6243L92.5738 93.7773L88.2717 89.4752C87.4359 88.6393 86.0592 88.6393 85.2234 89.4752C84.3875 90.311 84.3875 91.6631 85.2234 92.5235L91.0742 98.3498C91.4921 98.7677 92.033 98.9643 92.5738 98.9643C93.1392 98.9643 93.68 98.7677 94.098 98.3498Z" fill="#F9F9F9"/>
<circle cx="106.533" cy="5" r="2.5" fill="#95CFBA"/>
<circle cx="62.5332" cy="177" r="3.5" fill="#95CFBA"/>
<circle cx="122.033" cy="171.5" r="1" fill="#95CFBA"/>
<circle cx="170.533" cy="111" r="2.5" fill="#95CFBA"/>
<circle cx="1.0332" cy="75.5" r="1" fill="#95CFBA"/>
</svg>
